<?xml version="1.0" encoding="UTF-8" standalone="no"?><svg xmlns="http://www.w3.org/2000/svg" xmlns:xlink="http://www.w3.org/1999/xlink" contentStyleType="text/css" height="354px" preserveAspectRatio="none" style="width:3006px;height:354px;background:#FFFFFF;" version="1.1" viewBox="0 0 3006 354" width="3006px" zoomAndPan="magnify"><defs/><g><rect fill="#F1F1F1" height="81.9531" rx="5" ry="5" style="stroke:#F1F1F1;stroke-width:1.5;" width="225" x="10" y="159"/><text fill="#000000" font-family="sans-serif" font-size="14" font-weight="bold" lengthAdjust="spacing" textLength="96" x="15" y="174.5352">resourceType</text><text fill="#000000" font-family="sans-serif" font-size="14" lengthAdjust="spacing" textLength="47" x="121" y="174.5352">Bundle</text><line style="stroke:#000000;stroke-width:1.0;" x1="116" x2="116" y1="159" y2="179.4883"/><line style="stroke:#000000;stroke-width:1.0;" x1="10" x2="235" y1="179.4883" y2="179.4883"/><text fill="#000000" font-family="sans-serif" font-size="14" font-weight="bold" lengthAdjust="spacing" textLength="14" x="15" y="195.0234">id</text><text fill="#000000" font-family="sans-serif" font-size="14" lengthAdjust="spacing" textLength="109" x="121" y="195.0234">LabCancellation</text><line style="stroke:#000000;stroke-width:1.0;" x1="116" x2="116" y1="179.4883" y2="199.9766"/><line style="stroke:#000000;stroke-width:1.0;" x1="10" x2="235" y1="199.9766" y2="199.9766"/><text fill="#000000" font-family="sans-serif" font-size="14" font-weight="bold" lengthAdjust="spacing" textLength="31" x="15" y="215.5117">type</text><text fill="#000000" font-family="sans-serif" font-size="14" lengthAdjust="spacing" textLength="77" x="121" y="215.5117">transaction</text><line style="stroke:#000000;stroke-width:1.0;" x1="116" x2="116" y1="199.9766" y2="220.4648"/><line style="stroke:#000000;stroke-width:1.0;" x1="10" x2="235" y1="220.4648" y2="220.4648"/><text fill="#000000" font-family="sans-serif" font-size="14" font-weight="bold" lengthAdjust="spacing" textLength="37" x="15" y="236">entry</text><text fill="#000000" font-family="sans-serif" font-size="14" lengthAdjust="spacing" textLength="12" x="121" y="236">   </text><line style="stroke:#000000;stroke-width:1.0;" x1="116" x2="116" y1="220.4648" y2="240.9531"/><rect fill="none" height="81.9531" rx="5" ry="5" style="stroke:#000000;stroke-width:1.5;" width="225" x="10" y="159"/><rect fill="#F1F1F1" height="20.4883" rx="5" ry="5" style="stroke:#F1F1F1;stroke-width:1.5;" width="22" x="272" y="221"/><text fill="#000000" font-family="sans-serif" font-size="14" lengthAdjust="spacing" textLength="12" x="277" y="236.5352">   </text><rect fill="none" height="20.4883" rx="5" ry="5" style="stroke:#000000;stroke-width:1.5;" width="22" x="272" y="221"/><rect fill="#F1F1F1" height="61.4648" rx="5" ry="5" style="stroke:#F1F1F1;stroke-width:1.5;" width="385" x="333" y="200.5"/><text fill="#000000" font-family="sans-serif" font-size="14" font-weight="bold" lengthAdjust="spacing" textLength="46" x="338" y="216.0352">fullUrl</text><text fill="#000000" font-family="sans-serif" font-size="14" lengthAdjust="spacing" textLength="304" x="409" y="216.0352">Task/Covid19LabOrderCancellationExample</text><line style="stroke:#000000;stroke-width:1.0;" x1="404" x2="404" y1="200.5" y2="220.9883"/><line style="stroke:#000000;stroke-width:1.0;" x1="333" x2="718" y1="220.9883" y2="220.9883"/><text fill="#000000" font-family="sans-serif" font-size="14" font-weight="bold" lengthAdjust="spacing" textLength="61" x="338" y="236.5234">resource</text><text fill="#000000" font-family="sans-serif" font-size="14" lengthAdjust="spacing" textLength="12" x="409" y="236.5234">   </text><line style="stroke:#000000;stroke-width:1.0;" x1="404" x2="404" y1="220.9883" y2="241.4766"/><line style="stroke:#000000;stroke-width:1.0;" x1="333" x2="718" y1="241.4766" y2="241.4766"/><text fill="#000000" font-family="sans-serif" font-size="14" font-weight="bold" lengthAdjust="spacing" textLength="54" x="338" y="257.0117">request</text><text fill="#000000" font-family="sans-serif" font-size="14" lengthAdjust="spacing" textLength="12" x="409" y="257.0117">   </text><line style="stroke:#000000;stroke-width:1.0;" x1="404" x2="404" y1="241.4766" y2="261.9648"/><rect fill="none" height="61.4648" rx="5" ry="5" style="stroke:#000000;stroke-width:1.5;" width="385" x="333" y="200.5"/><rect fill="#F1F1F1" height="245.8594" rx="5" ry="5" style="stroke:#F1F1F1;stroke-width:1.5;" width="400" x="755" y="37"/><text fill="#000000" font-family="sans-serif" font-size="14" font-weight="bold" lengthAdjust="spacing" textLength="96" x="760" y="52.5352">resourceType</text><text fill="#000000" font-family="sans-serif" font-size="14" lengthAdjust="spacing" textLength="32" x="885" y="52.5352">Task</text><line style="stroke:#000000;stroke-width:1.0;" x1="880" x2="880" y1="37" y2="57.4883"/><line style="stroke:#000000;stroke-width:1.0;" x1="755" x2="1155" y1="57.4883" y2="57.4883"/><text fill="#000000" font-family="sans-serif" font-size="14" font-weight="bold" lengthAdjust="spacing" textLength="14" x="760" y="73.0234">id</text><text fill="#000000" font-family="sans-serif" font-size="14" lengthAdjust="spacing" textLength="265" x="885" y="73.0234">Covid19LabOrderCancellationExample</text><line style="stroke:#000000;stroke-width:1.0;" x1="880" x2="880" y1="57.4883" y2="77.9766"/><line style="stroke:#000000;stroke-width:1.0;" x1="755" x2="1155" y1="77.9766" y2="77.9766"/><text fill="#000000" font-family="sans-serif" font-size="14" font-weight="bold" lengthAdjust="spacing" textLength="36" x="760" y="93.5117">meta</text><text fill="#000000" font-family="sans-serif" font-size="14" lengthAdjust="spacing" textLength="12" x="885" y="93.5117">   </text><line style="stroke:#000000;stroke-width:1.0;" x1="880" x2="880" y1="77.9766" y2="98.4648"/><line style="stroke:#000000;stroke-width:1.0;" x1="755" x2="1155" y1="98.4648" y2="98.4648"/><text fill="#000000" font-family="sans-serif" font-size="14" font-weight="bold" lengthAdjust="spacing" textLength="67" x="760" y="114">identifier</text><text fill="#000000" font-family="sans-serif" font-size="14" lengthAdjust="spacing" textLength="12" x="885" y="114">   </text><line style="stroke:#000000;stroke-width:1.0;" x1="880" x2="880" y1="98.4648" y2="118.9531"/><line style="stroke:#000000;stroke-width:1.0;" x1="755" x2="1155" y1="118.9531" y2="118.9531"/><text fill="#000000" font-family="sans-serif" font-size="14" font-weight="bold" lengthAdjust="spacing" textLength="63" x="760" y="134.4883">basedOn</text><text fill="#000000" font-family="sans-serif" font-size="14" lengthAdjust="spacing" textLength="12" x="885" y="134.4883">   </text><line style="stroke:#000000;stroke-width:1.0;" x1="880" x2="880" y1="118.9531" y2="139.4414"/><line style="stroke:#000000;stroke-width:1.0;" x1="755" x2="1155" y1="139.4414" y2="139.4414"/><text fill="#000000" font-family="sans-serif" font-size="14" font-weight="bold" lengthAdjust="spacing" textLength="45" x="760" y="154.9766">status</text><text fill="#000000" font-family="sans-serif" font-size="14" lengthAdjust="spacing" textLength="64" x="885" y="154.9766">cancelled</text><line style="stroke:#000000;stroke-width:1.0;" x1="880" x2="880" y1="139.4414" y2="159.9297"/><line style="stroke:#000000;stroke-width:1.0;" x1="755" x2="1155" y1="159.9297" y2="159.9297"/><text fill="#000000" font-family="sans-serif" font-size="14" font-weight="bold" lengthAdjust="spacing" textLength="97" x="760" y="175.4648">statusReason</text><text fill="#000000" font-family="sans-serif" font-size="14" lengthAdjust="spacing" textLength="12" x="885" y="175.4648">   </text><line style="stroke:#000000;stroke-width:1.0;" x1="880" x2="880" y1="159.9297" y2="180.418"/><line style="stroke:#000000;stroke-width:1.0;" x1="755" x2="1155" y1="180.418" y2="180.418"/><text fill="#000000" font-family="sans-serif" font-size="14" font-weight="bold" lengthAdjust="spacing" textLength="43" x="760" y="195.9531">intent</text><text fill="#000000" font-family="sans-serif" font-size="14" lengthAdjust="spacing" textLength="38" x="885" y="195.9531">order</text><line style="stroke:#000000;stroke-width:1.0;" x1="880" x2="880" y1="180.418" y2="200.9063"/><line style="stroke:#000000;stroke-width:1.0;" x1="755" x2="1155" y1="200.9063" y2="200.9063"/><text fill="#000000" font-family="sans-serif" font-size="14" font-weight="bold" lengthAdjust="spacing" textLength="115" x="760" y="216.4414">executionPeriod</text><text fill="#000000" font-family="sans-serif" font-size="14" lengthAdjust="spacing" textLength="12" x="885" y="216.4414">   </text><line style="stroke:#000000;stroke-width:1.0;" x1="880" x2="880" y1="200.9063" y2="221.3945"/><line style="stroke:#000000;stroke-width:1.0;" x1="755" x2="1155" y1="221.3945" y2="221.3945"/><text fill="#000000" font-family="sans-serif" font-size="14" font-weight="bold" lengthAdjust="spacing" textLength="91" x="760" y="236.9297">lastModified</text><text fill="#000000" font-family="sans-serif" font-size="14" lengthAdjust="spacing" textLength="88" x="885" y="236.9297">2022-07-30</text><line style="stroke:#000000;stroke-width:1.0;" x1="880" x2="880" y1="221.3945" y2="241.8828"/><line style="stroke:#000000;stroke-width:1.0;" x1="755" x2="1155" y1="241.8828" y2="241.8828"/><text fill="#000000" font-family="sans-serif" font-size="14" font-weight="bold" lengthAdjust="spacing" textLength="68" x="760" y="257.418">requester</text><text fill="#000000" font-family="sans-serif" font-size="14" lengthAdjust="spacing" textLength="12" x="885" y="257.418">   </text><line style="stroke:#000000;stroke-width:1.0;" x1="880" x2="880" y1="241.8828" y2="262.3711"/><line style="stroke:#000000;stroke-width:1.0;" x1="755" x2="1155" y1="262.3711" y2="262.3711"/><text fill="#000000" font-family="sans-serif" font-size="14" font-weight="bold" lengthAdjust="spacing" textLength="44" x="760" y="277.9063">owner</text><text fill="#000000" font-family="sans-serif" font-size="14" lengthAdjust="spacing" textLength="12" x="885" y="277.9063">   </text><line style="stroke:#000000;stroke-width:1.0;" x1="880" x2="880" y1="262.3711" y2="282.8594"/><rect fill="none" height="245.8594" rx="5" ry="5" style="stroke:#000000;stroke-width:1.5;" width="400" x="755" y="37"/><rect fill="#F1F1F1" height="20.4883" rx="5" ry="5" style="stroke:#F1F1F1;stroke-width:1.5;" width="80" x="1346.5" y="25"/><text fill="#000000" font-family="sans-serif" font-size="14" font-weight="bold" lengthAdjust="spacing" textLength="48" x="1351.5" y="40.5352">profile</text><text fill="#000000" font-family="sans-serif" font-size="14" lengthAdjust="spacing" textLength="12" x="1409.5" y="40.5352">   </text><line style="stroke:#000000;stroke-width:1.0;" x1="1404.5" x2="1404.5" y1="25" y2="45.4883"/><rect fill="none" height="20.4883" rx="5" ry="5" style="stroke:#000000;stroke-width:1.5;" width="80" x="1346.5" y="25"/><rect fill="#F1F1F1" height="20.4883" rx="5" ry="5" style="stroke:#F1F1F1;stroke-width:1.5;" width="598" x="1618" y="10"/><text fill="#000000" font-family="sans-serif" font-size="14" lengthAdjust="spacing" textLength="588" x="1623" y="25.5352">http://openhie.org/fhir/covid19-casereporting/StructureDefinition/covid19-lab-task</text><rect fill="none" height="20.4883" rx="5" ry="5" style="stroke:#000000;stroke-width:1.5;" width="598" x="1618" y="10"/><rect fill="#F1F1F1" height="20.4883" rx="5" ry="5" style="stroke:#F1F1F1;stroke-width:1.5;" width="22" x="1374.5" y="73"/><text fill="#000000" font-family="sans-serif" font-size="14" lengthAdjust="spacing" textLength="12" x="1379.5" y="88.5352">   </text><rect fill="none" height="20.4883" rx="5" ry="5" style="stroke:#000000;stroke-width:1.5;" width="22" x="1374.5" y="73"/><rect fill="#F1F1F1" height="61.4648" rx="5" ry="5" style="stroke:#F1F1F1;stroke-width:1.5;" width="575" x="1629.5" y="48.5"/><text fill="#000000" font-family="sans-serif" font-size="14" font-weight="bold" lengthAdjust="spacing" textLength="31" x="1634.5" y="64.0352">type</text><text fill="#000000" font-family="sans-serif" font-size="14" lengthAdjust="spacing" textLength="12" x="1696.5" y="64.0352">   </text><line style="stroke:#000000;stroke-width:1.0;" x1="1691.5" x2="1691.5" y1="48.5" y2="68.9883"/><line style="stroke:#000000;stroke-width:1.0;" x1="1629.5" x2="2204.5" y1="68.9883" y2="68.9883"/><text fill="#000000" font-family="sans-serif" font-size="14" font-weight="bold" lengthAdjust="spacing" textLength="52" x="1634.5" y="84.5234">system</text><text fill="#000000" font-family="sans-serif" font-size="14" lengthAdjust="spacing" textLength="503" x="1696.5" y="84.5234">http://openhie.org/fhir/covid19-casereporting/lab-integration/order-id</text><line style="stroke:#000000;stroke-width:1.0;" x1="1691.5" x2="1691.5" y1="68.9883" y2="89.4766"/><line style="stroke:#000000;stroke-width:1.0;" x1="1629.5" x2="2204.5" y1="89.4766" y2="89.4766"/><text fill="#000000" font-family="sans-serif" font-size="14" font-weight="bold" lengthAdjust="spacing" textLength="38" x="1634.5" y="105.0117">value</text><text fill="#000000" font-family="sans-serif" font-size="14" lengthAdjust="spacing" textLength="92" x="1696.5" y="105.0117">ORDER12345</text><line style="stroke:#000000;stroke-width:1.0;" x1="1691.5" x2="1691.5" y1="89.4766" y2="109.9648"/><rect fill="none" height="61.4648" rx="5" ry="5" style="stroke:#000000;stroke-width:1.5;" width="575" x="1629.5" y="48.5"/><rect fill="#F1F1F1" height="20.4883" rx="5" ry="5" style="stroke:#F1F1F1;stroke-width:1.5;" width="80" x="2328" y="48"/><text fill="#000000" font-family="sans-serif" font-size="14" font-weight="bold" lengthAdjust="spacing" textLength="48" x="2333" y="63.5352">coding</text><text fill="#000000" font-family="sans-serif" font-size="14" lengthAdjust="spacing" textLength="12" x="2391" y="63.5352">   </text><line style="stroke:#000000;stroke-width:1.0;" x1="2386" x2="2386" y1="48" y2="68.4883"/><rect fill="none" height="20.4883" rx="5" ry="5" style="stroke:#000000;stroke-width:1.5;" width="80" x="2328" y="48"/><rect fill="#F1F1F1" height="20.4883" rx="5" ry="5" style="stroke:#F1F1F1;stroke-width:1.5;" width="22" x="2520" y="48"/><text fill="#000000" font-family="sans-serif" font-size="14" lengthAdjust="spacing" textLength="12" x="2525" y="63.5352">   </text><rect fill="none" height="20.4883" rx="5" ry="5" style="stroke:#000000;stroke-width:1.5;" width="22" x="2520" y="48"/><rect fill="#F1F1F1" height="40.9766" rx="5" ry="5" style="stroke:#F1F1F1;stroke-width:1.5;" width="413" x="2581" y="37.5"/><text fill="#000000" font-family="sans-serif" font-size="14" font-weight="bold" lengthAdjust="spacing" textLength="52" x="2586" y="53.0352">system</text><text fill="#000000" font-family="sans-serif" font-size="14" lengthAdjust="spacing" textLength="341" x="2648" y="53.0352">http://terminology.hl7.org/CodeSystem/v2-0203</text><line style="stroke:#000000;stroke-width:1.0;" x1="2643" x2="2643" y1="37.5" y2="57.9883"/><line style="stroke:#000000;stroke-width:1.0;" x1="2581" x2="2994" y1="57.9883" y2="57.9883"/><text fill="#000000" font-family="sans-serif" font-size="14" font-weight="bold" lengthAdjust="spacing" textLength="33" x="2586" y="73.5234">code</text><text fill="#000000" font-family="sans-serif" font-size="14" lengthAdjust="spacing" textLength="26" x="2648" y="73.5234">FILL</text><line style="stroke:#000000;stroke-width:1.0;" x1="2643" x2="2643" y1="57.9883" y2="78.4766"/><rect fill="none" height="40.9766" rx="5" ry="5" style="stroke:#000000;stroke-width:1.5;" width="413" x="2581" y="37.5"/><rect fill="#F1F1F1" height="20.4883" rx="5" ry="5" style="stroke:#F1F1F1;stroke-width:1.5;" width="22" x="1374.5" y="121"/><text fill="#000000" font-family="sans-serif" font-size="14" lengthAdjust="spacing" textLength="12" x="1379.5" y="136.5352">   </text><rect fill="none" height="20.4883" rx="5" ry="5" style="stroke:#000000;stroke-width:1.5;" width="22" x="1374.5" y="121"/><rect fill="#F1F1F1" height="20.4883" rx="5" ry="5" style="stroke:#F1F1F1;stroke-width:1.5;" width="415" x="1709.5" y="128"/><text fill="#000000" font-family="sans-serif" font-size="14" font-weight="bold" lengthAdjust="spacing" textLength="66" x="1714.5" y="143.5352">reference</text><text fill="#000000" font-family="sans-serif" font-size="14" lengthAdjust="spacing" textLength="329" x="1790.5" y="143.5352">ServiceRequest/Covid19ServiceRequestExample</text><line style="stroke:#000000;stroke-width:1.0;" x1="1785.5" x2="1785.5" y1="128" y2="148.4883"/><rect fill="none" height="20.4883" rx="5" ry="5" style="stroke:#000000;stroke-width:1.5;" width="415" x="1709.5" y="128"/><rect fill="#F1F1F1" height="20.4883" rx="5" ry="5" style="stroke:#F1F1F1;stroke-width:1.5;" width="80" x="1346.5" y="162"/><text fill="#000000" font-family="sans-serif" font-size="14" font-weight="bold" lengthAdjust="spacing" textLength="48" x="1351.5" y="177.5352">coding</text><text fill="#000000" font-family="sans-serif" font-size="14" lengthAdjust="spacing" textLength="12" x="1409.5" y="177.5352">   </text><line style="stroke:#000000;stroke-width:1.0;" x1="1404.5" x2="1404.5" y1="162" y2="182.4883"/><rect fill="none" height="20.4883" rx="5" ry="5" style="stroke:#000000;stroke-width:1.5;" width="80" x="1346.5" y="162"/><rect fill="#F1F1F1" height="20.4883" rx="5" ry="5" style="stroke:#F1F1F1;stroke-width:1.5;" width="22" x="1905" y="166"/><text fill="#000000" font-family="sans-serif" font-size="14" lengthAdjust="spacing" textLength="12" x="1910" y="181.5352">   </text><rect fill="none" height="20.4883" rx="5" ry="5" style="stroke:#000000;stroke-width:1.5;" width="22" x="1905" y="166"/><rect fill="#F1F1F1" height="40.9766" rx="5" ry="5" style="stroke:#F1F1F1;stroke-width:1.5;" width="230" x="2253" y="155.5"/><text fill="#000000" font-family="sans-serif" font-size="14" font-weight="bold" lengthAdjust="spacing" textLength="52" x="2258" y="171.0352">system</text><text fill="#000000" font-family="sans-serif" font-size="14" lengthAdjust="spacing" textLength="158" x="2320" y="171.0352">http://snomed.info/sct</text><line style="stroke:#000000;stroke-width:1.0;" x1="2315" x2="2315" y1="155.5" y2="175.9883"/><line style="stroke:#000000;stroke-width:1.0;" x1="2253" x2="2483" y1="175.9883" y2="175.9883"/><text fill="#000000" font-family="sans-serif" font-size="14" font-weight="bold" lengthAdjust="spacing" textLength="33" x="2258" y="191.5234">code</text><text fill="#000000" font-family="sans-serif" font-size="14" lengthAdjust="spacing" textLength="81" x="2320" y="191.5234">281264009</text><line style="stroke:#000000;stroke-width:1.0;" x1="2315" x2="2315" y1="175.9883" y2="196.4766"/><rect fill="none" height="40.9766" rx="5" ry="5" style="stroke:#000000;stroke-width:1.5;" width="230" x="2253" y="155.5"/><rect fill="#F1F1F1" height="20.4883" rx="5" ry="5" style="stroke:#F1F1F1;stroke-width:1.5;" width="134" x="1319.5" y="201"/><text fill="#000000" font-family="sans-serif" font-size="14" font-weight="bold" lengthAdjust="spacing" textLength="26" x="1324.5" y="216.5352">end</text><text fill="#000000" font-family="sans-serif" font-size="14" lengthAdjust="spacing" textLength="88" x="1360.5" y="216.5352">2022-07-30</text><line style="stroke:#000000;stroke-width:1.0;" x1="1355.5" x2="1355.5" y1="201" y2="221.4883"/><rect fill="none" height="20.4883" rx="5" ry="5" style="stroke:#000000;stroke-width:1.5;" width="134" x="1319.5" y="201"/><rect fill="#F1F1F1" height="20.4883" rx="5" ry="5" style="stroke:#F1F1F1;stroke-width:1.5;" width="389" x="1192" y="241"/><text fill="#000000" font-family="sans-serif" font-size="14" font-weight="bold" lengthAdjust="spacing" textLength="66" x="1197" y="256.5352">reference</text><text fill="#000000" font-family="sans-serif" font-size="14" lengthAdjust="spacing" textLength="303" x="1273" y="256.5352">Organization/Covid19OrganizationExample</text><line style="stroke:#000000;stroke-width:1.0;" x1="1268" x2="1268" y1="241" y2="261.4883"/><rect fill="none" height="20.4883" rx="5" ry="5" style="stroke:#000000;stroke-width:1.5;" width="389" x="1192" y="241"/><rect fill="#F1F1F1" height="20.4883" rx="5" ry="5" style="stroke:#F1F1F1;stroke-width:1.5;" width="389" x="1192" y="279"/><text fill="#000000" font-family="sans-serif" font-size="14" font-weight="bold" lengthAdjust="spacing" textLength="66" x="1197" y="294.5352">reference</text><text fill="#000000" font-family="sans-serif" font-size="14" lengthAdjust="spacing" textLength="303" x="1273" y="294.5352">Organization/Covid19OrganizationExample</text><line style="stroke:#000000;stroke-width:1.0;" x1="1268" x2="1268" y1="279" y2="299.4883"/><rect fill="none" height="20.4883" rx="5" ry="5" style="stroke:#000000;stroke-width:1.5;" width="389" x="1192" y="279"/><rect fill="#F1F1F1" height="40.9766" rx="5" ry="5" style="stroke:#F1F1F1;stroke-width:1.5;" width="379" x="765.5" y="301.5"/><text fill="#000000" font-family="sans-serif" font-size="14" font-weight="bold" lengthAdjust="spacing" textLength="55" x="770.5" y="317.0352">method</text><text fill="#000000" font-family="sans-serif" font-size="14" lengthAdjust="spacing" textLength="27" x="835.5" y="317.0352">PUT</text><line style="stroke:#000000;stroke-width:1.0;" x1="830.5" x2="830.5" y1="301.5" y2="321.9883"/><line style="stroke:#000000;stroke-width:1.0;" x1="765.5" x2="1144.5" y1="321.9883" y2="321.9883"/><text fill="#000000" font-family="sans-serif" font-size="14" font-weight="bold" lengthAdjust="spacing" textLength="20" x="770.5" y="337.5234">url</text><text fill="#000000" font-family="sans-serif" font-size="14" lengthAdjust="spacing" textLength="304" x="835.5" y="337.5234">Task/Covid19LabOrderCancellationExample</text><line style="stroke:#000000;stroke-width:1.0;" x1="830.5" x2="830.5" y1="321.9883" y2="342.4766"/><rect fill="none" height="40.9766" rx="5" ry="5" style="stroke:#000000;stroke-width:1.5;" width="379" x="765.5" y="301.5"/><path d="M1415,35 L1428,35 C1509.3755,35 1598.3402,32.8947 1677.7866,30.2616 " fill="none" style="stroke:#000000;stroke-width:1.0;stroke-dasharray:3.0,3.0;"/><path d="M1677.8892,33.3249 L1680.084,30.1847 L1677.6841,27.1984 L1685.4447,30.0052 L1677.8892,33.3249 " fill="#000000" style="stroke:#000000;stroke-width:1.0;"/><ellipse cx="1415" cy="35" fill="#000000" rx="3" ry="3" style="stroke:#000000;stroke-width:1.0;"/><path d="M1143,88 L1156,88 C1175.2296,88 1174.0592,70.9213 1192,64 C1239.9565,45.499 1298.8025,38.7332 1339.0261,36.2959 " fill="none" style="stroke:#000000;stroke-width:1.0;stroke-dasharray:3.0,3.0;"/><path d="M1339.1989,39.4109 L1341.3624,36.1663 L1338.8533,33.1808 L1346.8138,35.8639 L1339.1989,39.4109 " fill="#000000" style="stroke:#000000;stroke-width:1.0;"/><ellipse cx="1143" cy="88" fill="#000000" rx="3" ry="3" style="stroke:#000000;stroke-width:1.0;"/><path d="M2531.7751,58 L2544.7751,58 C2551.9698,58 2561.9797,58 2573.8638,58 " fill="none" style="stroke:#000000;stroke-width:1.0;stroke-dasharray:3.0,3.0;"/><path d="M2573.8638,61.0533 L2576.1538,58 L2573.8638,54.9467 L2581.4972,58 L2573.8638,61.0533 " fill="#000000" style="stroke:#000000;stroke-width:1.0;"/><ellipse cx="2531.7751" cy="58" fill="#000000" rx="3" ry="3" style="stroke:#000000;stroke-width:1.0;"/><path d="M2396.5,58 L2409.5,58 C2446.0671,58 2488.7993,58 2512.7503,58 " fill="none" style="stroke:#000000;stroke-width:1.0;stroke-dasharray:3.0,3.0;"/><path d="M2512.7503,61.059 L2515.0446,58 L2512.7503,54.941 L2520.3979,58 L2512.7503,61.059 " fill="#000000" style="stroke:#000000;stroke-width:1.0;"/><ellipse cx="2396.5" cy="58" fill="#000000" rx="3" ry="3" style="stroke:#000000;stroke-width:1.0;"/><path d="M2193.5,58 L2206.5,58 C2245.0565,58 2288.807,58 2320.9594,58 " fill="none" style="stroke:#000000;stroke-width:1.0;stroke-dasharray:3.0,3.0;"/><path d="M2320.9594,61.0002 L2323.2096,58 L2320.9594,54.9998 L2328.46,58 L2320.9594,61.0002 " fill="#000000" style="stroke:#000000;stroke-width:1.0;"/><ellipse cx="2193.5" cy="58" fill="#000000" rx="3" ry="3" style="stroke:#000000;stroke-width:1.0;"/><path d="M1386.0546,83.0071 L1399.0542,82.9089 C1431.348,82.665 1524.0485,81.9647 1622.2325,81.223 " fill="none" style="stroke:#000000;stroke-width:1.0;stroke-dasharray:3.0,3.0;"/><path d="M1622.2558,84.2965 L1624.5377,81.2056 L1622.2093,78.1494 L1629.9164,81.1649 L1622.2558,84.2965 " fill="#000000" style="stroke:#000000;stroke-width:1.0;"/><ellipse cx="1386.0546" cy="83.0071" fill="#000000" rx="3" ry="3" style="stroke:#000000;stroke-width:1.0;"/><path d="M1143,108 L1156,108 C1234.7468,108 1327.776,93.3373 1367.0258,86.4704 " fill="none" style="stroke:#000000;stroke-width:1.0;stroke-dasharray:3.0,3.0;"/><path d="M1367.5614,89.4843 L1369.2862,86.0687 L1366.4902,83.4565 L1374.5605,85.1315 L1367.5614,89.4843 " fill="#000000" style="stroke:#000000;stroke-width:1.0;"/><ellipse cx="1143" cy="108" fill="#000000" rx="3" ry="3" style="stroke:#000000;stroke-width:1.0;"/><path d="M1386.0554,130.9875 L1399.0542,131.1594 C1440.1044,131.702 1578.7602,133.5351 1702.2135,135.1671 " fill="none" style="stroke:#000000;stroke-width:1.0;stroke-dasharray:3.0,3.0;"/><path d="M1702.1726,138.2604 L1704.5334,135.1978 L1702.2544,132.0738 L1709.9467,135.2694 L1702.1726,138.2604 " fill="#000000" style="stroke:#000000;stroke-width:1.0;"/><ellipse cx="1386.0554" cy="130.9875" fill="#000000" rx="3" ry="3" style="stroke:#000000;stroke-width:1.0;"/><path d="M1143,129 L1156,129 C1234.3324,129 1327.6655,130.1743 1367.0163,130.7233 " fill="none" style="stroke:#000000;stroke-width:1.0;stroke-dasharray:3.0,3.0;"/><path d="M1366.9711,133.9122 L1369.408,130.7572 L1367.0615,127.5344 L1374.9885,130.8363 L1366.9711,133.9122 " fill="#000000" style="stroke:#000000;stroke-width:1.0;"/><ellipse cx="1143" cy="129" fill="#000000" rx="3" ry="3" style="stroke:#000000;stroke-width:1.0;"/><path d="M1916.5364,176 L1929.5364,176 C1973.9758,176 2132.1116,176 2245.5993,176 " fill="none" style="stroke:#000000;stroke-width:1.0;stroke-dasharray:3.0,3.0;"/><path d="M2245.5993,179.1001 L2247.9244,176 L2245.5993,172.8999 L2253.3495,176 L2245.5993,179.1001 " fill="#000000" style="stroke:#000000;stroke-width:1.0;"/><ellipse cx="1916.5364" cy="176" fill="#000000" rx="3" ry="3" style="stroke:#000000;stroke-width:1.0;"/><path d="M1415,172 L1428,172 C1611.033,172 1832.6289,174.8427 1897.6947,175.7352 " fill="none" style="stroke:#000000;stroke-width:1.0;stroke-dasharray:3.0,3.0;"/><path d="M1897.6515,178.8551 L1900.0346,175.7676 L1897.7379,172.6153 L1905.4943,175.8432 L1897.6515,178.8551 " fill="#000000" style="stroke:#000000;stroke-width:1.0;"/><ellipse cx="1415" cy="172" fill="#000000" rx="3" ry="3" style="stroke:#000000;stroke-width:1.0;"/><path d="M1143,170 L1156,170 C1219.5481,170 1292.969,170.7729 1339.4304,171.3577 " fill="none" style="stroke:#000000;stroke-width:1.0;stroke-dasharray:3.0,3.0;"/><path d="M1339.3921,174.3587 L1341.6811,171.3865 L1339.4687,168.3567 L1346.9329,171.4535 L1339.3921,174.3587 " fill="#000000" style="stroke:#000000;stroke-width:1.0;"/><ellipse cx="1143" cy="170" fill="#000000" rx="3" ry="3" style="stroke:#000000;stroke-width:1.0;"/><path d="M1143,211 L1156,211 C1208.0907,211 1266.8174,211 1311.8904,211 " fill="none" style="stroke:#000000;stroke-width:1.0;stroke-dasharray:3.0,3.0;"/><path d="M1311.8904,214.0726 L1314.1949,211 L1311.8904,207.9274 L1319.572,211 L1311.8904,214.0726 " fill="#000000" style="stroke:#000000;stroke-width:1.0;"/><ellipse cx="1143" cy="211" fill="#000000" rx="3" ry="3" style="stroke:#000000;stroke-width:1.0;"/><path d="M1143,252 L1156,252 C1165.3736,252 1174.9621,251.9916 1184.6473,251.9763 " fill="none" style="stroke:#000000;stroke-width:1.0;stroke-dasharray:3.0,3.0;"/><path d="M1184.6527,255.0906 L1186.983,251.9722 L1184.6418,248.862 L1192.433,251.9626 L1184.6527,255.0906 " fill="#000000" style="stroke:#000000;stroke-width:1.0;"/><ellipse cx="1143" cy="252" fill="#000000" rx="3" ry="3" style="stroke:#000000;stroke-width:1.0;"/><path d="M1143,273 L1156,273 C1195.8707,273 1239.5357,275.4224 1278.0058,278.382 " fill="none" style="stroke:#000000;stroke-width:1.0;stroke-dasharray:3.0,3.0;"/><path d="M1277.7664,281.4309 L1280.2925,278.5616 L1278.2453,275.3332 L1285.628,278.9806 L1277.7664,281.4309 " fill="#000000" style="stroke:#000000;stroke-width:1.0;"/><ellipse cx="1143" cy="273" fill="#000000" rx="3" ry="3" style="stroke:#000000;stroke-width:1.0;"/><path d="M706,230 L719,230 C728.4237,230 737.9749,229.4786 747.5614,228.5258 " fill="none" style="stroke:#000000;stroke-width:1.0;stroke-dasharray:3.0,3.0;"/><path d="M747.9034,231.6034 L749.8696,228.2694 L747.2195,225.4483 L755.2554,227.671 L747.9034,231.6034 " fill="#000000" style="stroke:#000000;stroke-width:1.0;"/><ellipse cx="706" cy="230" fill="#000000" rx="3" ry="3" style="stroke:#000000;stroke-width:1.0;"/><path d="M706,251 L719,251 C743.2497,251 733.716,280.3794 755,292 C759.2365,294.3131 763.5951,296.464 768.0503,298.4636 " fill="none" style="stroke:#000000;stroke-width:1.0;stroke-dasharray:3.0,3.0;"/><path d="M766.8426,301.2944 L770.1733,299.3694 L769.258,295.6329 L775.1271,301.4828 L766.8426,301.2944 " fill="#000000" style="stroke:#000000;stroke-width:1.0;"/><ellipse cx="706" cy="251" fill="#000000" rx="3" ry="3" style="stroke:#000000;stroke-width:1.0;"/><path d="M283.7571,231 L296.7571,231 C303.9706,231 314.0052,231 325.8743,231 " fill="none" style="stroke:#000000;stroke-width:1.0;stroke-dasharray:3.0,3.0;"/><path d="M325.8743,234.0474 L328.1598,231 L325.8743,227.9526 L333.4927,231 L325.8743,234.0474 " fill="#000000" style="stroke:#000000;stroke-width:1.0;"/><ellipse cx="283.7571" cy="231" fill="#000000" rx="3" ry="3" style="stroke:#000000;stroke-width:1.0;"/><path d="M223,231 L236,231 C245.374,231 255.7885,231 264.4714,231 " fill="none" style="stroke:#000000;stroke-width:1.0;stroke-dasharray:3.0,3.0;"/><path d="M264.4714,234.0815 L266.7825,231 L264.4714,227.9185 L272.1751,231 L264.4714,234.0815 " fill="#000000" style="stroke:#000000;stroke-width:1.0;"/><ellipse cx="223" cy="231" fill="#000000" rx="3" ry="3" style="stroke:#000000;stroke-width:1.0;"/><!--MD5=[047635c3d11dda5d15bad194b5eb8d9c]
@startjson lab-cancellation-bundle

{
  "resourceType" : "Bundle",
  "id" : "LabCancellation",
  "type" : "transaction",
  "entry" : [{
    "fullUrl" : "Task/Covid19LabOrderCancellationExample",
    "resource" : {
      "resourceType" : "Task",
      "id" : "Covid19LabOrderCancellationExample",
      "meta" : {
        "profile" : ["http://openhie.org/fhir/covid19-casereporting/StructureDefinition/covid19-lab-task"]
      },
     
      "identifier" : [{
        "type" : {
          "coding" : [{
            "system" : "http://terminology.hl7.org/CodeSystem/v2-0203",
            "code" : "FILL"
          }]
        },
        "system" : "http://openhie.org/fhir/covid19-casereporting/lab-integration/order-id",
        "value" : "ORDER12345"
      }],
      "basedOn" : [{
        "reference" : "ServiceRequest/Covid19ServiceRequestExample"
      }],
      "status" : "cancelled",
      "statusReason" : {
        "coding" : [{
          "system" : "http://snomed.info/sct",
          "code" : "281264009"
        }]
      },
      "intent" : "order",
      "executionPeriod" : {
        "end" : "2022-07-30"
      },
      "lastModified" : "2022-07-30",
      "requester" : {
        "reference" : "Organization/Covid19OrganizationExample"
      },
      "owner" : {
        "reference" : "Organization/Covid19OrganizationExample"
      }
    },
    "request" : {
      "method" : "PUT",
      "url" : "Task/Covid19LabOrderCancellationExample"
    }
  }]
}
@endjson

PlantUML version 1.2022.7(Mon Aug 22 19:01:30 SAST 2022)
(GPL source distribution)
Java Runtime: Java(TM) SE Runtime Environment
JVM: Java HotSpot(TM) 64-Bit Server VM
Default Encoding: UTF-8
Language: en
Country: GB
--></g></svg>