<?xml version="1.0" encoding="UTF-8" standalone="no"?><svg xmlns="http://www.w3.org/2000/svg" xmlns:xlink="http://www.w3.org/1999/xlink" contentStyleType="text/css" height="354px" preserveAspectRatio="none" style="width:2940px;height:354px;background:#FFFFFF;" version="1.1" viewBox="0 0 2940 354" width="2940px" zoomAndPan="magnify"><defs/><g><rect fill="#F1F1F1" height="81.9531" rx="5" ry="5" style="stroke:#F1F1F1;stroke-width:1.5;" width="203" x="10" y="159"/><text fill="#000000" font-family="sans-serif" font-size="14" font-weight="bold" lengthAdjust="spacing" textLength="96" x="15" y="174.5352">resourceType</text><text fill="#000000" font-family="sans-serif" font-size="14" lengthAdjust="spacing" textLength="47" x="121" y="174.5352">Bundle</text><line style="stroke:#000000;stroke-width:1.0;" x1="116" x2="116" y1="159" y2="179.4883"/><line style="stroke:#000000;stroke-width:1.0;" x1="10" x2="213" y1="179.4883" y2="179.4883"/><text fill="#000000" font-family="sans-serif" font-size="14" font-weight="bold" lengthAdjust="spacing" textLength="14" x="15" y="195.0234">id</text><text fill="#000000" font-family="sans-serif" font-size="14" lengthAdjust="spacing" textLength="87" x="121" y="195.0234">LabRejection</text><line style="stroke:#000000;stroke-width:1.0;" x1="116" x2="116" y1="179.4883" y2="199.9766"/><line style="stroke:#000000;stroke-width:1.0;" x1="10" x2="213" y1="199.9766" y2="199.9766"/><text fill="#000000" font-family="sans-serif" font-size="14" font-weight="bold" lengthAdjust="spacing" textLength="31" x="15" y="215.5117">type</text><text fill="#000000" font-family="sans-serif" font-size="14" lengthAdjust="spacing" textLength="77" x="121" y="215.5117">transaction</text><line style="stroke:#000000;stroke-width:1.0;" x1="116" x2="116" y1="199.9766" y2="220.4648"/><line style="stroke:#000000;stroke-width:1.0;" x1="10" x2="213" y1="220.4648" y2="220.4648"/><text fill="#000000" font-family="sans-serif" font-size="14" font-weight="bold" lengthAdjust="spacing" textLength="37" x="15" y="236">entry</text><text fill="#000000" font-family="sans-serif" font-size="14" lengthAdjust="spacing" textLength="12" x="121" y="236">   </text><line style="stroke:#000000;stroke-width:1.0;" x1="116" x2="116" y1="220.4648" y2="240.9531"/><rect fill="none" height="81.9531" rx="5" ry="5" style="stroke:#000000;stroke-width:1.5;" width="203" x="10" y="159"/><rect fill="#F1F1F1" height="20.4883" rx="5" ry="5" style="stroke:#F1F1F1;stroke-width:1.5;" width="22" x="250" y="221"/><text fill="#000000" font-family="sans-serif" font-size="14" lengthAdjust="spacing" textLength="12" x="255" y="236.5352">   </text><rect fill="none" height="20.4883" rx="5" ry="5" style="stroke:#000000;stroke-width:1.5;" width="22" x="250" y="221"/><rect fill="#F1F1F1" height="61.4648" rx="5" ry="5" style="stroke:#F1F1F1;stroke-width:1.5;" width="363" x="311" y="200.5"/><text fill="#000000" font-family="sans-serif" font-size="14" font-weight="bold" lengthAdjust="spacing" textLength="46" x="316" y="216.0352">fullUrl</text><text fill="#000000" font-family="sans-serif" font-size="14" lengthAdjust="spacing" textLength="282" x="387" y="216.0352">Task/Covid19LabOrderRejectionExample</text><line style="stroke:#000000;stroke-width:1.0;" x1="382" x2="382" y1="200.5" y2="220.9883"/><line style="stroke:#000000;stroke-width:1.0;" x1="311" x2="674" y1="220.9883" y2="220.9883"/><text fill="#000000" font-family="sans-serif" font-size="14" font-weight="bold" lengthAdjust="spacing" textLength="61" x="316" y="236.5234">resource</text><text fill="#000000" font-family="sans-serif" font-size="14" lengthAdjust="spacing" textLength="12" x="387" y="236.5234">   </text><line style="stroke:#000000;stroke-width:1.0;" x1="382" x2="382" y1="220.9883" y2="241.4766"/><line style="stroke:#000000;stroke-width:1.0;" x1="311" x2="674" y1="241.4766" y2="241.4766"/><text fill="#000000" font-family="sans-serif" font-size="14" font-weight="bold" lengthAdjust="spacing" textLength="54" x="316" y="257.0117">request</text><text fill="#000000" font-family="sans-serif" font-size="14" lengthAdjust="spacing" textLength="12" x="387" y="257.0117">   </text><line style="stroke:#000000;stroke-width:1.0;" x1="382" x2="382" y1="241.4766" y2="261.9648"/><rect fill="none" height="61.4648" rx="5" ry="5" style="stroke:#000000;stroke-width:1.5;" width="363" x="311" y="200.5"/><rect fill="#F1F1F1" height="245.8594" rx="5" ry="5" style="stroke:#F1F1F1;stroke-width:1.5;" width="378" x="711" y="37"/><text fill="#000000" font-family="sans-serif" font-size="14" font-weight="bold" lengthAdjust="spacing" textLength="96" x="716" y="52.5352">resourceType</text><text fill="#000000" font-family="sans-serif" font-size="14" lengthAdjust="spacing" textLength="32" x="841" y="52.5352">Task</text><line style="stroke:#000000;stroke-width:1.0;" x1="836" x2="836" y1="37" y2="57.4883"/><line style="stroke:#000000;stroke-width:1.0;" x1="711" x2="1089" y1="57.4883" y2="57.4883"/><text fill="#000000" font-family="sans-serif" font-size="14" font-weight="bold" lengthAdjust="spacing" textLength="14" x="716" y="73.0234">id</text><text fill="#000000" font-family="sans-serif" font-size="14" lengthAdjust="spacing" textLength="243" x="841" y="73.0234">Covid19LabOrderRejectionExample</text><line style="stroke:#000000;stroke-width:1.0;" x1="836" x2="836" y1="57.4883" y2="77.9766"/><line style="stroke:#000000;stroke-width:1.0;" x1="711" x2="1089" y1="77.9766" y2="77.9766"/><text fill="#000000" font-family="sans-serif" font-size="14" font-weight="bold" lengthAdjust="spacing" textLength="36" x="716" y="93.5117">meta</text><text fill="#000000" font-family="sans-serif" font-size="14" lengthAdjust="spacing" textLength="12" x="841" y="93.5117">   </text><line style="stroke:#000000;stroke-width:1.0;" x1="836" x2="836" y1="77.9766" y2="98.4648"/><line style="stroke:#000000;stroke-width:1.0;" x1="711" x2="1089" y1="98.4648" y2="98.4648"/><text fill="#000000" font-family="sans-serif" font-size="14" font-weight="bold" lengthAdjust="spacing" textLength="67" x="716" y="114">identifier</text><text fill="#000000" font-family="sans-serif" font-size="14" lengthAdjust="spacing" textLength="12" x="841" y="114">   </text><line style="stroke:#000000;stroke-width:1.0;" x1="836" x2="836" y1="98.4648" y2="118.9531"/><line style="stroke:#000000;stroke-width:1.0;" x1="711" x2="1089" y1="118.9531" y2="118.9531"/><text fill="#000000" font-family="sans-serif" font-size="14" font-weight="bold" lengthAdjust="spacing" textLength="63" x="716" y="134.4883">basedOn</text><text fill="#000000" font-family="sans-serif" font-size="14" lengthAdjust="spacing" textLength="12" x="841" y="134.4883">   </text><line style="stroke:#000000;stroke-width:1.0;" x1="836" x2="836" y1="118.9531" y2="139.4414"/><line style="stroke:#000000;stroke-width:1.0;" x1="711" x2="1089" y1="139.4414" y2="139.4414"/><text fill="#000000" font-family="sans-serif" font-size="14" font-weight="bold" lengthAdjust="spacing" textLength="45" x="716" y="154.9766">status</text><text fill="#000000" font-family="sans-serif" font-size="14" lengthAdjust="spacing" textLength="55" x="841" y="154.9766">rejected</text><line style="stroke:#000000;stroke-width:1.0;" x1="836" x2="836" y1="139.4414" y2="159.9297"/><line style="stroke:#000000;stroke-width:1.0;" x1="711" x2="1089" y1="159.9297" y2="159.9297"/><text fill="#000000" font-family="sans-serif" font-size="14" font-weight="bold" lengthAdjust="spacing" textLength="97" x="716" y="175.4648">statusReason</text><text fill="#000000" font-family="sans-serif" font-size="14" lengthAdjust="spacing" textLength="12" x="841" y="175.4648">   </text><line style="stroke:#000000;stroke-width:1.0;" x1="836" x2="836" y1="159.9297" y2="180.418"/><line style="stroke:#000000;stroke-width:1.0;" x1="711" x2="1089" y1="180.418" y2="180.418"/><text fill="#000000" font-family="sans-serif" font-size="14" font-weight="bold" lengthAdjust="spacing" textLength="43" x="716" y="195.9531">intent</text><text fill="#000000" font-family="sans-serif" font-size="14" lengthAdjust="spacing" textLength="38" x="841" y="195.9531">order</text><line style="stroke:#000000;stroke-width:1.0;" x1="836" x2="836" y1="180.418" y2="200.9063"/><line style="stroke:#000000;stroke-width:1.0;" x1="711" x2="1089" y1="200.9063" y2="200.9063"/><text fill="#000000" font-family="sans-serif" font-size="14" font-weight="bold" lengthAdjust="spacing" textLength="115" x="716" y="216.4414">executionPeriod</text><text fill="#000000" font-family="sans-serif" font-size="14" lengthAdjust="spacing" textLength="12" x="841" y="216.4414">   </text><line style="stroke:#000000;stroke-width:1.0;" x1="836" x2="836" y1="200.9063" y2="221.3945"/><line style="stroke:#000000;stroke-width:1.0;" x1="711" x2="1089" y1="221.3945" y2="221.3945"/><text fill="#000000" font-family="sans-serif" font-size="14" font-weight="bold" lengthAdjust="spacing" textLength="91" x="716" y="236.9297">lastModified</text><text fill="#000000" font-family="sans-serif" font-size="14" lengthAdjust="spacing" textLength="88" x="841" y="236.9297">2022-07-30</text><line style="stroke:#000000;stroke-width:1.0;" x1="836" x2="836" y1="221.3945" y2="241.8828"/><line style="stroke:#000000;stroke-width:1.0;" x1="711" x2="1089" y1="241.8828" y2="241.8828"/><text fill="#000000" font-family="sans-serif" font-size="14" font-weight="bold" lengthAdjust="spacing" textLength="68" x="716" y="257.418">requester</text><text fill="#000000" font-family="sans-serif" font-size="14" lengthAdjust="spacing" textLength="12" x="841" y="257.418">   </text><line style="stroke:#000000;stroke-width:1.0;" x1="836" x2="836" y1="241.8828" y2="262.3711"/><line style="stroke:#000000;stroke-width:1.0;" x1="711" x2="1089" y1="262.3711" y2="262.3711"/><text fill="#000000" font-family="sans-serif" font-size="14" font-weight="bold" lengthAdjust="spacing" textLength="44" x="716" y="277.9063">owner</text><text fill="#000000" font-family="sans-serif" font-size="14" lengthAdjust="spacing" textLength="12" x="841" y="277.9063">   </text><line style="stroke:#000000;stroke-width:1.0;" x1="836" x2="836" y1="262.3711" y2="282.8594"/><rect fill="none" height="245.8594" rx="5" ry="5" style="stroke:#000000;stroke-width:1.5;" width="378" x="711" y="37"/><rect fill="#F1F1F1" height="20.4883" rx="5" ry="5" style="stroke:#F1F1F1;stroke-width:1.5;" width="80" x="1280.5" y="25"/><text fill="#000000" font-family="sans-serif" font-size="14" font-weight="bold" lengthAdjust="spacing" textLength="48" x="1285.5" y="40.5352">profile</text><text fill="#000000" font-family="sans-serif" font-size="14" lengthAdjust="spacing" textLength="12" x="1343.5" y="40.5352">   </text><line style="stroke:#000000;stroke-width:1.0;" x1="1338.5" x2="1338.5" y1="25" y2="45.4883"/><rect fill="none" height="20.4883" rx="5" ry="5" style="stroke:#000000;stroke-width:1.5;" width="80" x="1280.5" y="25"/><rect fill="#F1F1F1" height="20.4883" rx="5" ry="5" style="stroke:#F1F1F1;stroke-width:1.5;" width="598" x="1552" y="10"/><text fill="#000000" font-family="sans-serif" font-size="14" lengthAdjust="spacing" textLength="588" x="1557" y="25.5352">http://openhie.org/fhir/covid19-casereporting/StructureDefinition/covid19-lab-task</text><rect fill="none" height="20.4883" rx="5" ry="5" style="stroke:#000000;stroke-width:1.5;" width="598" x="1552" y="10"/><rect fill="#F1F1F1" height="20.4883" rx="5" ry="5" style="stroke:#F1F1F1;stroke-width:1.5;" width="22" x="1308.5" y="73"/><text fill="#000000" font-family="sans-serif" font-size="14" lengthAdjust="spacing" textLength="12" x="1313.5" y="88.5352">   </text><rect fill="none" height="20.4883" rx="5" ry="5" style="stroke:#000000;stroke-width:1.5;" width="22" x="1308.5" y="73"/><rect fill="#F1F1F1" height="61.4648" rx="5" ry="5" style="stroke:#F1F1F1;stroke-width:1.5;" width="575" x="1563.5" y="48.5"/><text fill="#000000" font-family="sans-serif" font-size="14" font-weight="bold" lengthAdjust="spacing" textLength="31" x="1568.5" y="64.0352">type</text><text fill="#000000" font-family="sans-serif" font-size="14" lengthAdjust="spacing" textLength="12" x="1630.5" y="64.0352">   </text><line style="stroke:#000000;stroke-width:1.0;" x1="1625.5" x2="1625.5" y1="48.5" y2="68.9883"/><line style="stroke:#000000;stroke-width:1.0;" x1="1563.5" x2="2138.5" y1="68.9883" y2="68.9883"/><text fill="#000000" font-family="sans-serif" font-size="14" font-weight="bold" lengthAdjust="spacing" textLength="52" x="1568.5" y="84.5234">system</text><text fill="#000000" font-family="sans-serif" font-size="14" lengthAdjust="spacing" textLength="503" x="1630.5" y="84.5234">http://openhie.org/fhir/covid19-casereporting/lab-integration/order-id</text><line style="stroke:#000000;stroke-width:1.0;" x1="1625.5" x2="1625.5" y1="68.9883" y2="89.4766"/><line style="stroke:#000000;stroke-width:1.0;" x1="1563.5" x2="2138.5" y1="89.4766" y2="89.4766"/><text fill="#000000" font-family="sans-serif" font-size="14" font-weight="bold" lengthAdjust="spacing" textLength="38" x="1568.5" y="105.0117">value</text><text fill="#000000" font-family="sans-serif" font-size="14" lengthAdjust="spacing" textLength="92" x="1630.5" y="105.0117">ORDER12345</text><line style="stroke:#000000;stroke-width:1.0;" x1="1625.5" x2="1625.5" y1="89.4766" y2="109.9648"/><rect fill="none" height="61.4648" rx="5" ry="5" style="stroke:#000000;stroke-width:1.5;" width="575" x="1563.5" y="48.5"/><rect fill="#F1F1F1" height="20.4883" rx="5" ry="5" style="stroke:#F1F1F1;stroke-width:1.5;" width="80" x="2262" y="48"/><text fill="#000000" font-family="sans-serif" font-size="14" font-weight="bold" lengthAdjust="spacing" textLength="48" x="2267" y="63.5352">coding</text><text fill="#000000" font-family="sans-serif" font-size="14" lengthAdjust="spacing" textLength="12" x="2325" y="63.5352">   </text><line style="stroke:#000000;stroke-width:1.0;" x1="2320" x2="2320" y1="48" y2="68.4883"/><rect fill="none" height="20.4883" rx="5" ry="5" style="stroke:#000000;stroke-width:1.5;" width="80" x="2262" y="48"/><rect fill="#F1F1F1" height="20.4883" rx="5" ry="5" style="stroke:#F1F1F1;stroke-width:1.5;" width="22" x="2454" y="48"/><text fill="#000000" font-family="sans-serif" font-size="14" lengthAdjust="spacing" textLength="12" x="2459" y="63.5352">   </text><rect fill="none" height="20.4883" rx="5" ry="5" style="stroke:#000000;stroke-width:1.5;" width="22" x="2454" y="48"/><rect fill="#F1F1F1" height="40.9766" rx="5" ry="5" style="stroke:#F1F1F1;stroke-width:1.5;" width="413" x="2515" y="37.5"/><text fill="#000000" font-family="sans-serif" font-size="14" font-weight="bold" lengthAdjust="spacing" textLength="52" x="2520" y="53.0352">system</text><text fill="#000000" font-family="sans-serif" font-size="14" lengthAdjust="spacing" textLength="341" x="2582" y="53.0352">http://terminology.hl7.org/CodeSystem/v2-0203</text><line style="stroke:#000000;stroke-width:1.0;" x1="2577" x2="2577" y1="37.5" y2="57.9883"/><line style="stroke:#000000;stroke-width:1.0;" x1="2515" x2="2928" y1="57.9883" y2="57.9883"/><text fill="#000000" font-family="sans-serif" font-size="14" font-weight="bold" lengthAdjust="spacing" textLength="33" x="2520" y="73.5234">code</text><text fill="#000000" font-family="sans-serif" font-size="14" lengthAdjust="spacing" textLength="26" x="2582" y="73.5234">FILL</text><line style="stroke:#000000;stroke-width:1.0;" x1="2577" x2="2577" y1="57.9883" y2="78.4766"/><rect fill="none" height="40.9766" rx="5" ry="5" style="stroke:#000000;stroke-width:1.5;" width="413" x="2515" y="37.5"/><rect fill="#F1F1F1" height="20.4883" rx="5" ry="5" style="stroke:#F1F1F1;stroke-width:1.5;" width="22" x="1308.5" y="121"/><text fill="#000000" font-family="sans-serif" font-size="14" lengthAdjust="spacing" textLength="12" x="1313.5" y="136.5352">   </text><rect fill="none" height="20.4883" rx="5" ry="5" style="stroke:#000000;stroke-width:1.5;" width="22" x="1308.5" y="121"/><rect fill="#F1F1F1" height="20.4883" rx="5" ry="5" style="stroke:#F1F1F1;stroke-width:1.5;" width="415" x="1643.5" y="128"/><text fill="#000000" font-family="sans-serif" font-size="14" font-weight="bold" lengthAdjust="spacing" textLength="66" x="1648.5" y="143.5352">reference</text><text fill="#000000" font-family="sans-serif" font-size="14" lengthAdjust="spacing" textLength="329" x="1724.5" y="143.5352">ServiceRequest/Covid19ServiceRequestExample</text><line style="stroke:#000000;stroke-width:1.0;" x1="1719.5" x2="1719.5" y1="128" y2="148.4883"/><rect fill="none" height="20.4883" rx="5" ry="5" style="stroke:#000000;stroke-width:1.5;" width="415" x="1643.5" y="128"/><rect fill="#F1F1F1" height="20.4883" rx="5" ry="5" style="stroke:#F1F1F1;stroke-width:1.5;" width="80" x="1280.5" y="162"/><text fill="#000000" font-family="sans-serif" font-size="14" font-weight="bold" lengthAdjust="spacing" textLength="48" x="1285.5" y="177.5352">coding</text><text fill="#000000" font-family="sans-serif" font-size="14" lengthAdjust="spacing" textLength="12" x="1343.5" y="177.5352">   </text><line style="stroke:#000000;stroke-width:1.0;" x1="1338.5" x2="1338.5" y1="162" y2="182.4883"/><rect fill="none" height="20.4883" rx="5" ry="5" style="stroke:#000000;stroke-width:1.5;" width="80" x="1280.5" y="162"/><rect fill="#F1F1F1" height="20.4883" rx="5" ry="5" style="stroke:#F1F1F1;stroke-width:1.5;" width="22" x="1839" y="166"/><text fill="#000000" font-family="sans-serif" font-size="14" lengthAdjust="spacing" textLength="12" x="1844" y="181.5352">   </text><rect fill="none" height="20.4883" rx="5" ry="5" style="stroke:#000000;stroke-width:1.5;" width="22" x="1839" y="166"/><rect fill="#F1F1F1" height="40.9766" rx="5" ry="5" style="stroke:#F1F1F1;stroke-width:1.5;" width="230" x="2187" y="155.5"/><text fill="#000000" font-family="sans-serif" font-size="14" font-weight="bold" lengthAdjust="spacing" textLength="52" x="2192" y="171.0352">system</text><text fill="#000000" font-family="sans-serif" font-size="14" lengthAdjust="spacing" textLength="158" x="2254" y="171.0352">http://snomed.info/sct</text><line style="stroke:#000000;stroke-width:1.0;" x1="2249" x2="2249" y1="155.5" y2="175.9883"/><line style="stroke:#000000;stroke-width:1.0;" x1="2187" x2="2417" y1="175.9883" y2="175.9883"/><text fill="#000000" font-family="sans-serif" font-size="14" font-weight="bold" lengthAdjust="spacing" textLength="33" x="2192" y="191.5234">code</text><text fill="#000000" font-family="sans-serif" font-size="14" lengthAdjust="spacing" textLength="81" x="2254" y="191.5234">135839007</text><line style="stroke:#000000;stroke-width:1.0;" x1="2249" x2="2249" y1="175.9883" y2="196.4766"/><rect fill="none" height="40.9766" rx="5" ry="5" style="stroke:#000000;stroke-width:1.5;" width="230" x="2187" y="155.5"/><rect fill="#F1F1F1" height="20.4883" rx="5" ry="5" style="stroke:#F1F1F1;stroke-width:1.5;" width="134" x="1253.5" y="201"/><text fill="#000000" font-family="sans-serif" font-size="14" font-weight="bold" lengthAdjust="spacing" textLength="26" x="1258.5" y="216.5352">end</text><text fill="#000000" font-family="sans-serif" font-size="14" lengthAdjust="spacing" textLength="88" x="1294.5" y="216.5352">2022-07-30</text><line style="stroke:#000000;stroke-width:1.0;" x1="1289.5" x2="1289.5" y1="201" y2="221.4883"/><rect fill="none" height="20.4883" rx="5" ry="5" style="stroke:#000000;stroke-width:1.5;" width="134" x="1253.5" y="201"/><rect fill="#F1F1F1" height="20.4883" rx="5" ry="5" style="stroke:#F1F1F1;stroke-width:1.5;" width="389" x="1126" y="241"/><text fill="#000000" font-family="sans-serif" font-size="14" font-weight="bold" lengthAdjust="spacing" textLength="66" x="1131" y="256.5352">reference</text><text fill="#000000" font-family="sans-serif" font-size="14" lengthAdjust="spacing" textLength="303" x="1207" y="256.5352">Organization/Covid19OrganizationExample</text><line style="stroke:#000000;stroke-width:1.0;" x1="1202" x2="1202" y1="241" y2="261.4883"/><rect fill="none" height="20.4883" rx="5" ry="5" style="stroke:#000000;stroke-width:1.5;" width="389" x="1126" y="241"/><rect fill="#F1F1F1" height="20.4883" rx="5" ry="5" style="stroke:#F1F1F1;stroke-width:1.5;" width="389" x="1126" y="279"/><text fill="#000000" font-family="sans-serif" font-size="14" font-weight="bold" lengthAdjust="spacing" textLength="66" x="1131" y="294.5352">reference</text><text fill="#000000" font-family="sans-serif" font-size="14" lengthAdjust="spacing" textLength="303" x="1207" y="294.5352">Organization/Covid19OrganizationExample</text><line style="stroke:#000000;stroke-width:1.0;" x1="1202" x2="1202" y1="279" y2="299.4883"/><rect fill="none" height="20.4883" rx="5" ry="5" style="stroke:#000000;stroke-width:1.5;" width="389" x="1126" y="279"/><rect fill="#F1F1F1" height="40.9766" rx="5" ry="5" style="stroke:#F1F1F1;stroke-width:1.5;" width="357" x="721.5" y="301.5"/><text fill="#000000" font-family="sans-serif" font-size="14" font-weight="bold" lengthAdjust="spacing" textLength="55" x="726.5" y="317.0352">method</text><text fill="#000000" font-family="sans-serif" font-size="14" lengthAdjust="spacing" textLength="27" x="791.5" y="317.0352">PUT</text><line style="stroke:#000000;stroke-width:1.0;" x1="786.5" x2="786.5" y1="301.5" y2="321.9883"/><line style="stroke:#000000;stroke-width:1.0;" x1="721.5" x2="1078.5" y1="321.9883" y2="321.9883"/><text fill="#000000" font-family="sans-serif" font-size="14" font-weight="bold" lengthAdjust="spacing" textLength="20" x="726.5" y="337.5234">url</text><text fill="#000000" font-family="sans-serif" font-size="14" lengthAdjust="spacing" textLength="282" x="791.5" y="337.5234">Task/Covid19LabOrderRejectionExample</text><line style="stroke:#000000;stroke-width:1.0;" x1="786.5" x2="786.5" y1="321.9883" y2="342.4766"/><rect fill="none" height="40.9766" rx="5" ry="5" style="stroke:#000000;stroke-width:1.5;" width="357" x="721.5" y="301.5"/><path d="M1349,35 L1362,35 C1443.3755,35 1532.3402,32.8947 1611.7866,30.2616 " fill="none" style="stroke:#000000;stroke-width:1.0;stroke-dasharray:3.0,3.0;"/><path d="M1611.8892,33.3249 L1614.084,30.1847 L1611.6841,27.1984 L1619.4447,30.0052 L1611.8892,33.3249 " fill="#000000" style="stroke:#000000;stroke-width:1.0;"/><ellipse cx="1349" cy="35" fill="#000000" rx="3" ry="3" style="stroke:#000000;stroke-width:1.0;"/><path d="M1077,88 L1090,88 C1109.2296,88 1108.0592,70.9213 1126,64 C1173.9565,45.499 1232.8025,38.7332 1273.0261,36.2959 " fill="none" style="stroke:#000000;stroke-width:1.0;stroke-dasharray:3.0,3.0;"/><path d="M1273.1989,39.4109 L1275.3624,36.1663 L1272.8533,33.1808 L1280.8138,35.8639 L1273.1989,39.4109 " fill="#000000" style="stroke:#000000;stroke-width:1.0;"/><ellipse cx="1077" cy="88" fill="#000000" rx="3" ry="3" style="stroke:#000000;stroke-width:1.0;"/><path d="M2465.7751,58 L2478.7751,58 C2485.9698,58 2495.9797,58 2507.8638,58 " fill="none" style="stroke:#000000;stroke-width:1.0;stroke-dasharray:3.0,3.0;"/><path d="M2507.8638,61.0533 L2510.1538,58 L2507.8638,54.9467 L2515.4972,58 L2507.8638,61.0533 " fill="#000000" style="stroke:#000000;stroke-width:1.0;"/><ellipse cx="2465.7751" cy="58" fill="#000000" rx="3" ry="3" style="stroke:#000000;stroke-width:1.0;"/><path d="M2330.5,58 L2343.5,58 C2380.0671,58 2422.7993,58 2446.7503,58 " fill="none" style="stroke:#000000;stroke-width:1.0;stroke-dasharray:3.0,3.0;"/><path d="M2446.7503,61.059 L2449.0446,58 L2446.7503,54.941 L2454.3979,58 L2446.7503,61.059 " fill="#000000" style="stroke:#000000;stroke-width:1.0;"/><ellipse cx="2330.5" cy="58" fill="#000000" rx="3" ry="3" style="stroke:#000000;stroke-width:1.0;"/><path d="M2127.5,58 L2140.5,58 C2179.0565,58 2222.807,58 2254.9594,58 " fill="none" style="stroke:#000000;stroke-width:1.0;stroke-dasharray:3.0,3.0;"/><path d="M2254.9594,61.0002 L2257.2096,58 L2254.9594,54.9998 L2262.46,58 L2254.9594,61.0002 " fill="#000000" style="stroke:#000000;stroke-width:1.0;"/><ellipse cx="2127.5" cy="58" fill="#000000" rx="3" ry="3" style="stroke:#000000;stroke-width:1.0;"/><path d="M1320.0546,83.0071 L1333.0542,82.9089 C1365.348,82.665 1458.0485,81.9647 1556.2325,81.223 " fill="none" style="stroke:#000000;stroke-width:1.0;stroke-dasharray:3.0,3.0;"/><path d="M1556.2558,84.2965 L1558.5377,81.2056 L1556.2093,78.1494 L1563.9164,81.1649 L1556.2558,84.2965 " fill="#000000" style="stroke:#000000;stroke-width:1.0;"/><ellipse cx="1320.0546" cy="83.0071" fill="#000000" rx="3" ry="3" style="stroke:#000000;stroke-width:1.0;"/><path d="M1077,108 L1090,108 C1168.7468,108 1261.776,93.3373 1301.0258,86.4704 " fill="none" style="stroke:#000000;stroke-width:1.0;stroke-dasharray:3.0,3.0;"/><path d="M1301.5614,89.4843 L1303.2862,86.0687 L1300.4902,83.4565 L1308.5605,85.1315 L1301.5614,89.4843 " fill="#000000" style="stroke:#000000;stroke-width:1.0;"/><ellipse cx="1077" cy="108" fill="#000000" rx="3" ry="3" style="stroke:#000000;stroke-width:1.0;"/><path d="M1320.0554,130.9875 L1333.0542,131.1594 C1374.1044,131.702 1512.7602,133.5351 1636.2135,135.1671 " fill="none" style="stroke:#000000;stroke-width:1.0;stroke-dasharray:3.0,3.0;"/><path d="M1636.1726,138.2604 L1638.5334,135.1978 L1636.2544,132.0738 L1643.9467,135.2694 L1636.1726,138.2604 " fill="#000000" style="stroke:#000000;stroke-width:1.0;"/><ellipse cx="1320.0554" cy="130.9875" fill="#000000" rx="3" ry="3" style="stroke:#000000;stroke-width:1.0;"/><path d="M1077,129 L1090,129 C1168.3324,129 1261.6655,130.1743 1301.0163,130.7233 " fill="none" style="stroke:#000000;stroke-width:1.0;stroke-dasharray:3.0,3.0;"/><path d="M1300.9711,133.9122 L1303.408,130.7572 L1301.0615,127.5344 L1308.9885,130.8363 L1300.9711,133.9122 " fill="#000000" style="stroke:#000000;stroke-width:1.0;"/><ellipse cx="1077" cy="129" fill="#000000" rx="3" ry="3" style="stroke:#000000;stroke-width:1.0;"/><path d="M1850.5364,176 L1863.5364,176 C1907.9758,176 2066.1116,176 2179.5993,176 " fill="none" style="stroke:#000000;stroke-width:1.0;stroke-dasharray:3.0,3.0;"/><path d="M2179.5993,179.1001 L2181.9244,176 L2179.5993,172.8999 L2187.3495,176 L2179.5993,179.1001 " fill="#000000" style="stroke:#000000;stroke-width:1.0;"/><ellipse cx="1850.5364" cy="176" fill="#000000" rx="3" ry="3" style="stroke:#000000;stroke-width:1.0;"/><path d="M1349,172 L1362,172 C1545.033,172 1766.6289,174.8427 1831.6947,175.7352 " fill="none" style="stroke:#000000;stroke-width:1.0;stroke-dasharray:3.0,3.0;"/><path d="M1831.6515,178.8551 L1834.0346,175.7676 L1831.7379,172.6153 L1839.4943,175.8432 L1831.6515,178.8551 " fill="#000000" style="stroke:#000000;stroke-width:1.0;"/><ellipse cx="1349" cy="172" fill="#000000" rx="3" ry="3" style="stroke:#000000;stroke-width:1.0;"/><path d="M1077,170 L1090,170 C1153.5481,170 1226.969,170.7729 1273.4304,171.3577 " fill="none" style="stroke:#000000;stroke-width:1.0;stroke-dasharray:3.0,3.0;"/><path d="M1273.3921,174.3587 L1275.6811,171.3865 L1273.4687,168.3567 L1280.9329,171.4535 L1273.3921,174.3587 " fill="#000000" style="stroke:#000000;stroke-width:1.0;"/><ellipse cx="1077" cy="170" fill="#000000" rx="3" ry="3" style="stroke:#000000;stroke-width:1.0;"/><path d="M1077,211 L1090,211 C1142.0907,211 1200.8174,211 1245.8904,211 " fill="none" style="stroke:#000000;stroke-width:1.0;stroke-dasharray:3.0,3.0;"/><path d="M1245.8904,214.0726 L1248.1949,211 L1245.8904,207.9274 L1253.572,211 L1245.8904,214.0726 " fill="#000000" style="stroke:#000000;stroke-width:1.0;"/><ellipse cx="1077" cy="211" fill="#000000" rx="3" ry="3" style="stroke:#000000;stroke-width:1.0;"/><path d="M1077,252 L1090,252 C1099.3736,252 1108.9621,251.9916 1118.6473,251.9763 " fill="none" style="stroke:#000000;stroke-width:1.0;stroke-dasharray:3.0,3.0;"/><path d="M1118.6527,255.0906 L1120.983,251.9722 L1118.6418,248.862 L1126.433,251.9626 L1118.6527,255.0906 " fill="#000000" style="stroke:#000000;stroke-width:1.0;"/><ellipse cx="1077" cy="252" fill="#000000" rx="3" ry="3" style="stroke:#000000;stroke-width:1.0;"/><path d="M1077,273 L1090,273 C1129.8707,273 1173.5357,275.4224 1212.0058,278.382 " fill="none" style="stroke:#000000;stroke-width:1.0;stroke-dasharray:3.0,3.0;"/><path d="M1211.7664,281.4309 L1214.2925,278.5616 L1212.2453,275.3332 L1219.628,278.9806 L1211.7664,281.4309 " fill="#000000" style="stroke:#000000;stroke-width:1.0;"/><ellipse cx="1077" cy="273" fill="#000000" rx="3" ry="3" style="stroke:#000000;stroke-width:1.0;"/><path d="M662,230 L675,230 C684.4228,230 693.9713,229.431 703.5462,228.3957 " fill="none" style="stroke:#000000;stroke-width:1.0;stroke-dasharray:3.0,3.0;"/><path d="M703.9176,231.4688 L705.851,228.1172 L703.1749,225.3226 L711.2289,227.4673 L703.9176,231.4688 " fill="#000000" style="stroke:#000000;stroke-width:1.0;"/><ellipse cx="662" cy="230" fill="#000000" rx="3" ry="3" style="stroke:#000000;stroke-width:1.0;"/><path d="M662,251 L675,251 C699.2497,251 689.7659,280.2883 711,292 C715.1893,294.3106 719.5056,296.456 723.9212,298.4475 " fill="none" style="stroke:#000000;stroke-width:1.0;stroke-dasharray:3.0,3.0;"/><path d="M722.7195,301.2542 L726.0262,299.3488 L725.123,295.6408 L730.9379,301.4519 L722.7195,301.2542 " fill="#000000" style="stroke:#000000;stroke-width:1.0;"/><ellipse cx="662" cy="251" fill="#000000" rx="3" ry="3" style="stroke:#000000;stroke-width:1.0;"/><path d="M261.5158,231 L274.5158,231 C281.6953,231 291.7189,231 303.556,231 " fill="none" style="stroke:#000000;stroke-width:1.0;stroke-dasharray:3.0,3.0;"/><path d="M303.556,234.0381 L305.8346,231 L303.556,227.9619 L311.1513,231 L303.556,234.0381 " fill="#000000" style="stroke:#000000;stroke-width:1.0;"/><ellipse cx="261.5158" cy="231" fill="#000000" rx="3" ry="3" style="stroke:#000000;stroke-width:1.0;"/><path d="M201,231 L214,231 C223.374,231 233.7885,231 242.4714,231 " fill="none" style="stroke:#000000;stroke-width:1.0;stroke-dasharray:3.0,3.0;"/><path d="M242.4714,234.0815 L244.7825,231 L242.4714,227.9185 L250.1751,231 L242.4714,234.0815 " fill="#000000" style="stroke:#000000;stroke-width:1.0;"/><ellipse cx="201" cy="231" fill="#000000" rx="3" ry="3" style="stroke:#000000;stroke-width:1.0;"/><!--MD5=[97e787af6584fc918f7e3de4879874d1]
@startjson lab-rejection-bundle
{
  "resourceType" : "Bundle",
  "id" : "LabRejection",
  "type" : "transaction",
  "entry" : [{
    "fullUrl" : "Task/Covid19LabOrderRejectionExample",
    "resource" : {
      "resourceType" : "Task",
      "id" : "Covid19LabOrderRejectionExample",
      "meta" : {
        "profile" : ["http://openhie.org/fhir/covid19-casereporting/StructureDefinition/covid19-lab-task"]
      },
     
      "identifier" : [{
        "type" : {
          "coding" : [{
            "system" : "http://terminology.hl7.org/CodeSystem/v2-0203",
            "code" : "FILL"
          }]
        },
        "system" : "http://openhie.org/fhir/covid19-casereporting/lab-integration/order-id",
        "value" : "ORDER12345"
      }],
      "basedOn" : [{
        "reference" : "ServiceRequest/Covid19ServiceRequestExample"
      }],
      "status" : "rejected",
      "statusReason" : {
        "coding" : [{
          "system" : "http://snomed.info/sct",
          "code" : "135839007"
        }]
      },
      "intent" : "order",
      "executionPeriod" : {
        "end" : "2022-07-30"
      },
      "lastModified" : "2022-07-30",
      "requester" : {
        "reference" : "Organization/Covid19OrganizationExample"
      },
      "owner" : {
        "reference" : "Organization/Covid19OrganizationExample"
      }
    },
    "request" : {
      "method" : "PUT",
      "url" : "Task/Covid19LabOrderRejectionExample"
    }
  }]
}
@endjson

PlantUML version 1.2022.7(Mon Aug 22 19:01:30 SAST 2022)
(GPL source distribution)
Java Runtime: Java(TM) SE Runtime Environment
JVM: Java HotSpot(TM) 64-Bit Server VM
Default Encoding: UTF-8
Language: en
Country: GB
--></g></svg>