<?xml version="1.0" encoding="UTF-8" standalone="no"?><svg xmlns="http://www.w3.org/2000/svg" xmlns:xlink="http://www.w3.org/1999/xlink" contentStyleType="text/css" height="917px" preserveAspectRatio="none" style="width:1297px;height:917px;background:#FFFFFF;" version="1.1" viewBox="0 0 1297 917" width="1297px" zoomAndPan="magnify"><defs/><g><!--MD5=[2caf110011a8ade4bad137ae4abd946e]
cluster EMR--><g id="cluster_EMR"><rect fill="none" height="611" rx="2.5" ry="2.5" style="stroke:#181818;stroke-width:1.0;" width="569" x="90" y="7"/><text fill="#000000" font-family="sans-serif" font-size="14" font-weight="bold" lengthAdjust="spacing" textLength="31" x="359" y="22.5352">EMR</text></g><!--MD5=[65c07aa696f0c0abf1b42f55bef1ceca]
cluster Laboratory--><g id="cluster_Laboratory"><rect fill="none" height="261" rx="2.5" ry="2.5" style="stroke:#181818;stroke-width:1.0;" width="892" x="399" y="650"/><text fill="#000000" font-family="sans-serif" font-size="14" font-weight="bold" lengthAdjust="spacing" textLength="77" x="806.5" y="665.5352">Laboratory</text></g><g id="elem_UC1"><ellipse cx="213.5403" cy="256.9081" fill="#F1F1F1" rx="72.5403" ry="16.9081" style="stroke:#181818;stroke-width:0.5;"/><text fill="#000000" font-family="sans-serif" font-size="14" lengthAdjust="spacing" textLength="100" x="163.0432" y="260.3341">Register Client</text></g><g id="elem_UC2"><ellipse cx="213.6987" cy="325.1397" fill="#F1F1F1" rx="68.6987" ry="16.1397" style="stroke:#181818;stroke-width:0.5;"/><text fill="#000000" font-family="sans-serif" font-size="14" lengthAdjust="spacing" textLength="90" x="166.171" y="329.0562">Assess Client</text></g><g id="elem_UC3"><ellipse cx="511.9096" cy="572.7819" fill="#F1F1F1" rx="129.4096" ry="28.2819" style="stroke:#181818;stroke-width:0.5;"/><text fill="#000000" font-family="sans-serif" font-size="14" lengthAdjust="spacing" textLength="227" x="398.4096" y="576.0729">Document Screening Information</text></g><g id="elem_UC4"><ellipse cx="512.1645" cy="489.2329" fill="#F1F1F1" rx="91.6645" ry="20.7329" style="stroke:#181818;stroke-width:0.5;"/><text fill="#000000" font-family="sans-serif" font-size="14" lengthAdjust="spacing" textLength="145" x="439.6645" y="492.5239">Document Symptoms</text></g><g id="elem_UC5"><ellipse cx="511.8563" cy="410.0713" fill="#F1F1F1" rx="103.3563" ry="23.0713" style="stroke:#181818;stroke-width:0.5;"/><text fill="#000000" font-family="sans-serif" font-size="14" lengthAdjust="spacing" textLength="171" x="426.3563" y="413.3623">Document Comorbidities</text></g><g id="elem_UC6"><ellipse cx="511.8755" cy="324.7751" fill="#F1F1F1" rx="121.8755" ry="26.7751" style="stroke:#181818;stroke-width:0.5;"/><text fill="#000000" font-family="sans-serif" font-size="14" lengthAdjust="spacing" textLength="211" x="406.3755" y="328.0661">Document Hospital Encounters</text></g><g id="elem_UC8"><ellipse cx="511.8988" cy="241.8798" fill="#F1F1F1" rx="89.8988" ry="20.3798" style="stroke:#181818;stroke-width:0.5;"/><text fill="#000000" font-family="sans-serif" font-size="14" lengthAdjust="spacing" textLength="141" x="441.3988" y="245.1708">Document Diagnosis</text></g><g id="elem_UC9"><ellipse cx="511.8286" cy="158.0657" fill="#F1F1F1" rx="130.8286" ry="28.5657" style="stroke:#181818;stroke-width:0.5;"/><text fill="#000000" font-family="sans-serif" font-size="14" lengthAdjust="spacing" textLength="230" x="396.8286" y="161.3567">Document Treatment Information</text></g><g id="elem_UC10"><ellipse cx="213.4756" cy="399.8951" fill="#F1F1F1" rx="107.4756" ry="23.8951" style="stroke:#181818;stroke-width:0.5;"/><text fill="#000000" font-family="sans-serif" font-size="14" lengthAdjust="spacing" textLength="180" x="123.4756" y="403.1861">Document Client Outcome</text></g><g id="elem_UC11"><ellipse cx="213.3148" cy="478.063" fill="#F1F1F1" rx="80.8148" ry="18.563" style="stroke:#181818;stroke-width:0.5;"/><text fill="#000000" font-family="sans-serif" font-size="14" lengthAdjust="spacing" textLength="120" x="153.3148" y="481.354">Submit Lab Order</text></g><g id="elem_UC12"><ellipse cx="512.1989" cy="67.8398" fill="#F1F1F1" rx="117.1989" ry="25.8398" style="stroke:#181818;stroke-width:0.5;"/><text fill="#000000" font-family="sans-serif" font-size="14" lengthAdjust="spacing" textLength="201" x="411.6989" y="71.1308">Document Vaccination Events</text></g><g id="elem_UC13"><ellipse cx="213.3912" cy="549.9782" fill="#F1F1F1" rx="80.3912" ry="18.4782" style="stroke:#181818;stroke-width:0.5;"/><text fill="#000000" font-family="sans-serif" font-size="14" lengthAdjust="spacing" textLength="119" x="153.8912" y="553.2693">Generate Reports</text></g><g id="elem_UC14"><ellipse cx="512.0911" cy="730.8182" fill="#F1F1F1" rx="82.0911" ry="18.8182" style="stroke:#181818;stroke-width:0.5;"/><text fill="#000000" font-family="sans-serif" font-size="14" lengthAdjust="spacing" textLength="123" x="450.5911" y="734.1092">Sample Collection</text></g><g id="elem_UC15"><ellipse cx="512.0197" cy="805.2039" fill="#F1F1F1" rx="89.0197" ry="20.2039" style="stroke:#181818;stroke-width:0.5;"/><text fill="#000000" font-family="sans-serif" font-size="14" lengthAdjust="spacing" textLength="139" x="442.5197" y="808.495">Process Lab Request</text></g><g id="elem_UC16"><ellipse cx="794.2221" cy="866.1444" fill="#F1F1F1" rx="91.2221" ry="20.6444" style="stroke:#181818;stroke-width:0.5;"/><text fill="#000000" font-family="sans-serif" font-size="14" lengthAdjust="spacing" textLength="144" x="722.2221" y="869.4354">Document Lab Result</text></g><g id="elem_UC17"><ellipse cx="793.8692" cy="791.9738" fill="#F1F1F1" rx="77.8692" ry="17.9738" style="stroke:#181818;stroke-width:0.5;"/><text fill="#000000" font-family="sans-serif" font-size="14" lengthAdjust="spacing" textLength="113" x="737.3692" y="795.2649">Reject Lab Order</text></g><g id="elem_UC18"><ellipse cx="793.9685" cy="719.8937" fill="#F1F1F1" rx="79.9685" ry="18.3937" style="stroke:#181818;stroke-width:0.5;"/><text fill="#000000" font-family="sans-serif" font-size="14" lengthAdjust="spacing" textLength="118" x="734.9685" y="723.1847">Cancel Lab Order</text></g><g id="elem_UC19"><ellipse cx="1105.9728" cy="764.0946" fill="#F1F1F1" rx="160.9728" ry="34.5946" style="stroke:#181818;stroke-width:0.5;"/><text fill="#000000" font-family="sans-serif" font-size="14" lengthAdjust="spacing" textLength="293" x="959.4728" y="767.3856">Document Reason For Not Performing Test</text></g><!--MD5=[87d66015e0fe95d70bf3fa68103252e8]
entity nurse--><g id="elem_nurse"><ellipse cx="26" cy="333.5" fill="#F1F1F1" rx="8" ry="8" style="stroke:#181818;stroke-width:0.5;"/><path d="M26,341.5 L26,368.5 M13,349.5 L39,349.5 M26,368.5 L13,383.5 M26,368.5 L39,383.5 " fill="none" style="stroke:#181818;stroke-width:0.5;"/><text fill="#000000" font-family="sans-serif" font-size="14" lengthAdjust="spacing" textLength="40" x="6" y="398.5352">Nurse</text></g><!--MD5=[638ee1f3c764dfa48de8b121debf660f]
entity lab--><g id="elem_lab"><ellipse cx="213.5" cy="738.5" fill="#F1F1F1" rx="8" ry="8" style="stroke:#181818;stroke-width:0.5;"/><path d="M213.5,746.5 L213.5,773.5 M200.5,754.5 L226.5,754.5 M213.5,773.5 L200.5,788.5 M213.5,773.5 L226.5,788.5 " fill="none" style="stroke:#181818;stroke-width:0.5;"/><text fill="#000000" font-family="sans-serif" font-size="14" lengthAdjust="spacing" textLength="90" x="168.5" y="803.5352">Lab Assistant</text></g><!--MD5=[f17e6c89128ac7aec25bfd04da8c0308]
link nurse to UC1--><g id="link_nurse_UC1"><path d="M46.45,328.43 C55.63,314.95 67.72,300.49 82,291 C99.92,279.09 121.8,271.34 142.48,266.31 " fill="none" id="nurse-to-UC1" style="stroke:#181818;stroke-width:1.0;"/><polygon fill="#181818" points="147.09,265.24,137.4194,263.3745,142.219,266.3685,139.225,271.168,147.09,265.24" style="stroke:#181818;stroke-width:1.0;"/></g><!--MD5=[5826e13423bb2507f5811bd6926f5554]
link nurse to UC2--><g id="link_nurse_UC2"><path d="M46.15,359.08 C71.53,353.88 117.42,344.48 154.58,336.86 " fill="none" id="nurse-to-UC2" style="stroke:#181818;stroke-width:1.0;"/><polygon fill="#181818" points="159.46,335.87,149.8407,333.7559,154.5616,336.8726,151.4449,341.5934,159.46,335.87" style="stroke:#181818;stroke-width:1.0;"/></g><!--MD5=[3a11357958aa0c02f2cc121c62d5f2e3]
link nurse to UC10--><g id="link_nurse_UC10"><path d="M46.15,366.82 C65.25,370.63 95.97,376.76 125.84,382.72 " fill="none" id="nurse-to-UC10" style="stroke:#181818;stroke-width:1.0;"/><polygon fill="#181818" points="130.72,383.69,122.6824,377.9981,125.8176,382.7067,121.1091,385.8419,130.72,383.69" style="stroke:#181818;stroke-width:1.0;"/></g><!--MD5=[ce4189e8b724cc8e8133b133b14fb0ff]
link nurse to UC11--><g id="link_nurse_UC11"><path d="M46.25,400.69 C55.33,415.16 67.4,430.65 82,441 C98.63,452.78 118.93,460.83 138.52,466.32 " fill="none" id="nurse-to-UC11" style="stroke:#181818;stroke-width:1.0;"/><polygon fill="#181818" points="143.11,467.55,135.4423,461.3689,138.2784,466.2635,133.3838,469.0996,143.11,467.55" style="stroke:#181818;stroke-width:1.0;"/></g><!--MD5=[819c6795238fe0678004be45f9272584]
link nurse to UC12--><g id="link_nurse_UC12"><path d="M33.01,324.69 C39.82,293.26 53.86,249.6 82,222 C168.79,136.88 305.91,98.46 401.7,81.35 " fill="none" id="nurse-to-UC12" style="stroke:#181818;stroke-width:1.0;"/><polygon fill="#181818" points="406.45,80.51,396.8977,78.1112,401.5239,81.3667,398.2685,85.9929,406.45,80.51" style="stroke:#181818;stroke-width:1.0;"/></g><!--MD5=[b3a21b43b4b2c2ffcd1d65d06d6c083e]
link nurse to UC13--><g id="link_nurse_UC13"><path d="M31.09,401.27 C36.76,435.5 50.22,484.67 82,514 C96.12,527.03 114.53,535.41 133.05,540.78 " fill="none" id="nurse-to-UC13" style="stroke:#181818;stroke-width:1.0;"/><polygon fill="#181818" points="137.87,542.09,130.2365,535.8667,133.0455,540.7768,128.1354,543.5859,137.87,542.09" style="stroke:#181818;stroke-width:1.0;"/></g><!--MD5=[594891eb4838d876d29f7ff5a36f2080]
link UC2 to UC3--><g id="link_UC2_UC3"><path d="M273.53,333.01 C290.6,337.85 308.08,345.6 321,358 C378.49,413.2 324.61,470.67 381,527 C390.47,536.46 402.01,543.99 414.26,549.97 " fill="none" id="UC2-to-UC3" style="stroke:#181818;stroke-width:1.0;stroke-dasharray:7.0,7.0;"/><polygon fill="#181818" points="418.57,551.97,412.0982,544.546,414.0369,549.8603,408.7226,551.7989,418.57,551.97" style="stroke:#181818;stroke-width:1.0;"/></g><!--MD5=[70fd0aa021e0672eb21bacda73a77dec]
link UC2 to UC4--><g id="link_UC2_UC4"><path d="M269.92,334.44 C287.49,339.36 306.17,346.8 321,358 C359.96,387.41 341.91,420.76 381,450 C395.92,461.16 414.02,469.14 431.92,474.85 " fill="none" id="UC2-to-UC4" style="stroke:#181818;stroke-width:1.0;stroke-dasharray:7.0,7.0;"/><polygon fill="#181818" points="436.53,476.26,429.0907,469.8058,431.748,474.7996,426.7541,477.4569,436.53,476.26" style="stroke:#181818;stroke-width:1.0;"/></g><!--MD5=[436623159342f13c9fd9ed0a1f967804]
link UC2 to UC5--><g id="link_UC2_UC5"><path d="M258.25,337.54 C306.35,351.33 384.32,373.68 440.96,389.92 " fill="none" id="UC2-to-UC5" style="stroke:#181818;stroke-width:1.0;stroke-dasharray:7.0,7.0;"/><polygon fill="#181818" points="445.61,391.25,438.0502,384.9373,440.8013,389.8802,435.8585,392.6313,445.61,391.25" style="stroke:#181818;stroke-width:1.0;"/></g><!--MD5=[ecd2434c5b5779472dacbf513ac33feb]
link UC2 to UC6--><g id="link_UC2_UC6"><path d="M282.15,325 C312.16,325 348.5,325 383.3,325 " fill="none" id="UC2-to-UC6" style="stroke:#181818;stroke-width:1.0;stroke-dasharray:7.0,7.0;"/><polygon fill="#181818" points="388.26,325,379.26,321,383.26,325,379.26,329,388.26,325" style="stroke:#181818;stroke-width:1.0;"/></g><!--MD5=[8ac767de004ec2b526ed589d88e066cf]
link UC2 to UC12--><g id="link_UC2_UC12"><path d="M272.86,316.77 C290.2,311.79 308.01,303.81 321,291 C380.76,232.1 321.76,171.42 381,112 C391.3,101.67 404.12,93.76 417.65,87.71 " fill="none" id="UC2-to-UC12" style="stroke:#181818;stroke-width:1.0;stroke-dasharray:7.0,7.0;"/><polygon fill="#181818" points="422.1,85.82,412.2528,85.6369,417.494,87.7654,415.3655,93.0065,422.1,85.82" style="stroke:#181818;stroke-width:1.0;"/></g><!--MD5=[8e1835bbd2458cbc209f5c2e10388565]
link UC2 to UC8--><g id="link_UC2_UC8"><path d="M258.89,312.57 C309,298.55 390.93,275.61 447.73,259.71 " fill="none" id="UC2-to-UC8" style="stroke:#181818;stroke-width:1.0;stroke-dasharray:7.0,7.0;"/><polygon fill="#181818" points="452.38,258.41,442.6323,257.002,447.5676,259.7666,444.8029,264.7019,452.38,258.41" style="stroke:#181818;stroke-width:1.0;"/></g><!--MD5=[f0be2fb77127b088597f947fa9e3d650]
link UC2 to UC9--><g id="link_UC2_UC9"><path d="M268.39,315.16 C286.34,310.04 305.64,302.39 321,291 C358.73,263.02 343.71,232.56 381,204 C392.48,195.21 405.77,188.01 419.38,182.14 " fill="none" id="UC2-to-UC9" style="stroke:#181818;stroke-width:1.0;stroke-dasharray:7.0,7.0;"/><polygon fill="#181818" points="423.84,180.28,413.9936,180.06,419.2267,182.2081,417.0786,187.4413,423.84,180.28" style="stroke:#181818;stroke-width:1.0;"/></g><!--MD5=[06e19530180cecac6701b4d0f2ec9bc3]
link lab to UC14--><g id="link_lab_UC14"><path d="M258.89,762.46 C304.7,756.74 377.1,747.71 432.59,740.79 " fill="none" id="lab-to-UC14" style="stroke:#181818;stroke-width:1.0;"/><polygon fill="#181818" points="437.42,740.18,427.9893,737.3405,432.4595,740.8072,428.9928,745.2773,437.42,740.18" style="stroke:#181818;stroke-width:1.0;"/></g><!--MD5=[ded93c6ad00df83b2409142acb5c8e0d]
link lab to UC15--><g id="link_lab_UC15"><path d="M258.89,773.54 C303.22,779.07 372.46,787.71 427.17,794.54 " fill="none" id="lab-to-UC15" style="stroke:#181818;stroke-width:1.0;"/><polygon fill="#181818" points="431.92,795.13,423.4947,790.0296,426.9597,794.501,422.4883,797.9661,431.92,795.13" style="stroke:#181818;stroke-width:1.0;"/></g><!--MD5=[bc911ee5be9984a4ef3a3c3116f6483d]
link UC15 to UC16--><g id="link_UC15_UC16"><path d="M577.24,818.99 C620.26,828.37 676.94,840.72 721.41,850.4 " fill="none" id="UC15-to-UC16" style="stroke:#181818;stroke-width:1.0;stroke-dasharray:7.0,7.0;"/><polygon fill="#181818" points="726.13,851.43,718.1795,845.6171,721.2431,850.3726,716.4876,853.4362,726.13,851.43" style="stroke:#181818;stroke-width:1.0;"/></g><!--MD5=[7d0b437e0b82e0eae493cef790e490c1]
link UC15 to UC17--><g id="link_UC15_UC17"><path d="M599.68,800.98 C635.06,799.33 675.78,797.44 710.7,795.82 " fill="none" id="UC15-to-UC17" style="stroke:#181818;stroke-width:1.0;stroke-dasharray:7.0,7.0;"/><polygon fill="#181818" points="715.64,795.59,706.4663,792.0064,710.6452,795.819,706.8326,799.998,715.64,795.59" style="stroke:#181818;stroke-width:1.0;"/></g><!--MD5=[74ec458b8042d4fb8596a38c1e3f88c7]
link UC15 to UC18--><g id="link_UC15_UC18"><path d="M578.32,791.26 C605.9,784.95 638.23,776.89 667,768 C694.21,759.59 724.03,748.32 747.82,738.82 " fill="none" id="UC15-to-UC18" style="stroke:#181818;stroke-width:1.0;stroke-dasharray:7.0,7.0;"/><polygon fill="#181818" points="752.33,737.01,742.4872,736.6647,747.6926,738.8792,745.478,744.0846,752.33,737.01" style="stroke:#181818;stroke-width:1.0;"/></g><!--MD5=[1fb06e3e2909d743208d4155953bcacc]
reverse link UC18 to UC19--><g id="link_UC18_UC19"><path d="M869.43,730.56 C899.81,734.88 935.92,740 970.62,744.93 " fill="none" id="UC18-backto-UC19" style="stroke:#181818;stroke-width:1.0;stroke-dasharray:7.0,7.0;"/><polygon fill="#181818" points="864.53,729.87,872.8654,735.1161,869.4786,730.5851,874.0096,727.1983,864.53,729.87" style="stroke:#181818;stroke-width:1.0;"/></g><!--MD5=[764bd62e7cb456554433d0e24841c4c3]
reverse link UC17 to UC19--><g id="link_UC17_UC19"><path d="M873.66,784.89 C899.05,782.6 928.08,779.98 956.79,777.39 " fill="none" id="UC17-backto-UC19" style="stroke:#181818;stroke-width:1.0;stroke-dasharray:7.0,7.0;"/><polygon fill="#181818" points="868.8,785.33,878.1186,788.518,873.7804,784.8876,877.4108,780.5494,868.8,785.33" style="stroke:#181818;stroke-width:1.0;"/></g><!--MD5=[33e25583600199a6b66c8183a2d7b1c1]
link UC11 to Laboratory--><g id="link_UC11_Laboratory"><path d="M275.29,490.28 C291.36,495.63 307.87,503.23 321,514 C362.27,547.83 341.48,582.14 381,618 C392.565,628.4925 406.3106,637.3938 420.4633,644.8516 C422.2324,645.7838 424.0078,646.6935 425.7861,647.5809 C426.6753,648.0246 427.5652,648.4627 428.4554,648.8953 C428.9005,649.1116 429.3456,649.3265 429.7908,649.5401 C430.0134,649.6469 430.236,649.7533 430.4586,649.8594 " fill="none" id="UC11-to-Laboratory" style="stroke:#181818;stroke-width:1.0;stroke-dasharray:7.0,7.0;"/><polygon fill="#181818" points="430.4586,649.8594,424.055,642.3765,425.945,647.7083,420.6132,649.5983,430.4586,649.8594" style="stroke:#181818;stroke-width:1.0;"/></g><!--MD5=[1d9011488d61b487eb9dc4e34b639160]
@startuml UseCaseDiagram
left to right direction
actor "Nurse" as nurse
rectangle EMR {
  usecase "Register Client" as UC1
  usecase "Assess Client" as UC2
  usecase "Document Screening Information" as UC3
  usecase "Document Symptoms" as UC4
  usecase "Document Comorbidities" as UC5
  usecase "Document Hospital Encounters" as UC6
  usecase "Document Diagnosis" as UC8
  usecase "Document Treatment Information" as UC9
  usecase "Document Client Outcome" as UC10
  usecase "Submit Lab Order" as UC11
  usecase "Document Vaccination Events" as UC12
  usecase "Generate Reports" as UC13
}

nurse - -> UC1
nurse - -> UC2
nurse - -> UC10
nurse - -> UC11
nurse - -> UC12
nurse - -> UC13


(UC2) ..> (UC3)
(UC2) ..> (UC4)
(UC2) ..> (UC5)
(UC2) ..> (UC6)
(UC2) ..> (UC12)
(UC2) ..> (UC8)
(UC2) ..> (UC9)

actor "Lab Assistant" as lab
rectangle Laboratory {
  usecase "Sample Collection" as UC14
  usecase "Process Lab Request" as UC15
  usecase "Document Lab Result" as UC16
  usecase "Reject Lab Order" as UC17
  usecase "Cancel Lab Order" as UC18
  usecase "Document Reason For Not Performing Test" as UC19
}

lab - -> UC14
lab - -> UC15


(UC15) ..> (UC16)
(UC15) ..> (UC17)
(UC15) ..> (UC18)

(UC18) <.. (UC19)
(UC17) <.. (UC19)

(UC11) ..> Laboratory

'(UC16) ..> (UC8)

@enduml

@startuml UseCaseDiagram
left to right direction
actor "Nurse" as nurse
rectangle EMR {
  usecase "Register Client" as UC1
  usecase "Assess Client" as UC2
  usecase "Document Screening Information" as UC3
  usecase "Document Symptoms" as UC4
  usecase "Document Comorbidities" as UC5
  usecase "Document Hospital Encounters" as UC6
  usecase "Document Diagnosis" as UC8
  usecase "Document Treatment Information" as UC9
  usecase "Document Client Outcome" as UC10
  usecase "Submit Lab Order" as UC11
  usecase "Document Vaccination Events" as UC12
  usecase "Generate Reports" as UC13
}

nurse - -> UC1
nurse - -> UC2
nurse - -> UC10
nurse - -> UC11
nurse - -> UC12
nurse - -> UC13


(UC2) ..> (UC3)
(UC2) ..> (UC4)
(UC2) ..> (UC5)
(UC2) ..> (UC6)
(UC2) ..> (UC12)
(UC2) ..> (UC8)
(UC2) ..> (UC9)

actor "Lab Assistant" as lab
rectangle Laboratory {
  usecase "Sample Collection" as UC14
  usecase "Process Lab Request" as UC15
  usecase "Document Lab Result" as UC16
  usecase "Reject Lab Order" as UC17
  usecase "Cancel Lab Order" as UC18
  usecase "Document Reason For Not Performing Test" as UC19
}

lab - -> UC14
lab - -> UC15


(UC15) ..> (UC16)
(UC15) ..> (UC17)
(UC15) ..> (UC18)

(UC18) <.. (UC19)
(UC17) <.. (UC19)

(UC11) ..> Laboratory


@enduml

PlantUML version 1.2022.7(Mon Aug 22 19:01:30 SAST 2022)
(GPL source distribution)
Java Runtime: Java(TM) SE Runtime Environment
JVM: Java HotSpot(TM) 64-Bit Server VM
Default Encoding: UTF-8
Language: en
Country: GB
--></g></svg>